ISO-10303-21;
HEADER;
/* Generated by software containing ST-Developer
 * from STEP Tools, Inc. (www.steptools.com) 
 */

FILE_DESCRIPTION(
/* description */ (''),
/* implementation_level */ '2;1');

FILE_NAME(
/* name */ 'UT Longhorn.step',
/* time_stamp */ '2026-09-17T19:10:05-07:00',
/* author */ (''),
/* organization */ (''),
/* preprocessor_version */ 'ST-DEVELOPER v20.1',
/* originating_system */ 'Autodesk Translation Framework v15.8.0.0',
/* authorisation */ '');

FILE_SCHEMA (('AUTOMOTIVE_DESIGN { 1 0 10303 214 3 1 1 }'));
ENDSEC;

DATA;
#10=MECHANICAL_DESIGN_GEOMETRIC_PRESENTATION_REPRESENTATION('',(#14,#15,
#16,#17,#18,#19,#20,#21,#22,#23,#24,#25,#26,#27,#28,#29,#30,#31,#32,#33,
#34,#35,#36,#37,#38,#39,#40,#41,#42),#1805);
#11=SHAPE_REPRESENTATION_RELATIONSHIP('SRR','None',#1815,#12);
#12=ADVANCED_BREP_SHAPE_REPRESENTATION('',(#13),#1804);
#13=MANIFOLD_SOLID_BREP('Body6',#1025);
#14=STYLED_ITEM('',(#1826),#989);
#15=STYLED_ITEM('',(#1826),#990);
#16=STYLED_ITEM('',(#1826),#991);
#17=STYLED_ITEM('',(#1826),#992);
#18=STYLED_ITEM('',(#1826),#993);
#19=STYLED_ITEM('',(#1826),#994);
#20=STYLED_ITEM('',(#1826),#995);
#21=STYLED_ITEM('',(#1826),#996);
#22=STYLED_ITEM('',(#1826),#997);
#23=STYLED_ITEM('',(#1826),#998);
#24=STYLED_ITEM('',(#1826),#999);
#25=STYLED_ITEM('',(#1826),#1000);
#26=STYLED_ITEM('',(#1826),#1001);
#27=STYLED_ITEM('',(#1826),#1002);
#28=STYLED_ITEM('',(#1826),#1003);
#29=STYLED_ITEM('',(#1826),#1004);
#30=STYLED_ITEM('',(#1826),#1005);
#31=STYLED_ITEM('',(#1826),#1006);
#32=STYLED_ITEM('',(#1826),#1007);
#33=STYLED_ITEM('',(#1826),#1008);
#34=STYLED_ITEM('',(#1826),#1009);
#35=STYLED_ITEM('',(#1826),#1010);
#36=STYLED_ITEM('',(#1826),#1011);
#37=STYLED_ITEM('',(#1826),#1012);
#38=STYLED_ITEM('',(#1826),#1021);
#39=STYLED_ITEM('',(#1826),#1022);
#40=STYLED_ITEM('',(#1826),#1023);
#41=STYLED_ITEM('',(#1826),#1024);
#42=STYLED_ITEM('',(#1825),#13);
#43=CIRCLE('',#1042,1.83054251296413);
#44=CIRCLE('',#1043,1.83054251296413);
#45=CIRCLE('',#1045,0.985981941535941);
#46=CIRCLE('',#1046,0.985981941535941);
#47=CIRCLE('',#1048,0.0564206782352091);
#48=CIRCLE('',#1049,0.0564206782352091);
#49=CIRCLE('',#1051,0.879354410609259);
#50=CIRCLE('',#1052,0.879354410609259);
#51=CIRCLE('',#1054,0.977922421679599);
#52=CIRCLE('',#1055,0.977922421679599);
#53=CIRCLE('',#1057,2.30750149103045);
#54=CIRCLE('',#1058,2.30750149103045);
#55=CIRCLE('',#1062,1.83054251296413);
#56=CIRCLE('',#1063,1.83054251296413);
#57=CIRCLE('',#1065,0.985981941535941);
#58=CIRCLE('',#1066,0.985981941535941);
#59=CIRCLE('',#1068,0.0564206782352091);
#60=CIRCLE('',#1069,0.0564206782352091);
#61=CIRCLE('',#1071,0.879354410609259);
#62=CIRCLE('',#1072,0.879354410609259);
#63=CIRCLE('',#1074,0.977922421679599);
#64=CIRCLE('',#1075,0.977922421679599);
#65=CIRCLE('',#1077,2.30750149103045);
#66=CIRCLE('',#1078,2.30750149103045);
#67=CIRCLE('',#1080,0.985981941535938);
#68=CIRCLE('',#1081,0.985981941535938);
#69=CIRCLE('',#1083,0.0371261750497164);
#70=CIRCLE('',#1084,0.0371261750497164);
#71=CIRCLE('',#1086,0.040845987207422);
#72=CIRCLE('',#1087,0.040845987207422);
#73=CIRCLE('',#1089,0.113204817921731);
#74=CIRCLE('',#1090,0.113204817921731);
#75=CIRCLE('',#1092,0.108643478570527);
#76=CIRCLE('',#1093,0.108643478570527);
#77=CIRCLE('',#1095,0.132382737554675);
#78=CIRCLE('',#1096,0.132382737554675);
#79=CIRCLE('',#1098,0.632503689928608);
#80=CIRCLE('',#1099,0.632503689928608);
#81=CIRCLE('',#1101,0.0613925155389444);
#82=CIRCLE('',#1102,0.0613925155389444);
#83=CIRCLE('',#1104,0.040807734921155);
#84=CIRCLE('',#1105,0.040807734921155);
#85=CIRCLE('',#1107,0.0613925155389444);
#86=CIRCLE('',#1108,0.0613925155389444);
#87=CIRCLE('',#1110,0.632503689928608);
#88=CIRCLE('',#1111,0.632503689928608);
#89=CIRCLE('',#1113,0.132382737554675);
#90=CIRCLE('',#1114,0.132382737554675);
#91=CIRCLE('',#1116,0.108643478570527);
#92=CIRCLE('',#1117,0.108643478570527);
#93=CIRCLE('',#1119,0.11320481792173);
#94=CIRCLE('',#1120,0.11320481792173);
#95=CIRCLE('',#1122,0.040845987207422);
#96=CIRCLE('',#1123,0.040845987207422);
#97=CIRCLE('',#1125,0.0371261750497164);
#98=CIRCLE('',#1126,0.0371261750497164);
#99=CIRCLE('',#1128,2.30750149103046);
#100=CIRCLE('',#1129,2.30750149103046);
#101=CIRCLE('',#1131,1.83054251296411);
#102=CIRCLE('',#1132,1.83054251296411);
#103=CIRCLE('',#1134,0.579780389593254);
#104=CIRCLE('',#1135,0.579780389593254);
#105=CIRCLE('',#1137,0.766575682972054);
#106=CIRCLE('',#1138,0.766575682972054);
#107=CIRCLE('',#1140,0.766575682972054);
#108=CIRCLE('',#1141,0.766575682972054);
#109=CIRCLE('',#1143,0.579780389593254);
#110=CIRCLE('',#1144,0.579780389593254);
#111=CIRCLE('',#1146,1.83054251296411);
#112=CIRCLE('',#1147,1.83054251296411);
#113=CIRCLE('',#1149,0.040807734921155);
#114=CIRCLE('',#1150,0.040807734921155);
#115=CIRCLE('',#1160,2.30750149103046);
#116=CIRCLE('',#1161,2.30750149103046);
#117=CIRCLE('',#1163,0.985981941535938);
#118=CIRCLE('',#1165,0.985981941535938);
#119=CYLINDRICAL_SURFACE('',#1041,1.83054251296413);
#120=CYLINDRICAL_SURFACE('',#1044,0.985981941535941);
#121=CYLINDRICAL_SURFACE('',#1047,0.0564206782352091);
#122=CYLINDRICAL_SURFACE('',#1050,0.879354410609259);
#123=CYLINDRICAL_SURFACE('',#1053,0.977922421679599);
#124=CYLINDRICAL_SURFACE('',#1056,2.30750149103045);
#125=CYLINDRICAL_SURFACE('',#1061,1.83054251296413);
#126=CYLINDRICAL_SURFACE('',#1064,0.985981941535941);
#127=CYLINDRICAL_SURFACE('',#1067,0.0564206782352091);
#128=CYLINDRICAL_SURFACE('',#1070,0.879354410609259);
#129=CYLINDRICAL_SURFACE('',#1073,0.977922421679599);
#130=CYLINDRICAL_SURFACE('',#1076,2.30750149103045);
#131=CYLINDRICAL_SURFACE('',#1079,0.985981941535938);
#132=CYLINDRICAL_SURFACE('',#1082,0.0371261750497164);
#133=CYLINDRICAL_SURFACE('',#1085,0.040845987207422);
#134=CYLINDRICAL_SURFACE('',#1088,0.113204817921731);
#135=CYLINDRICAL_SURFACE('',#1091,0.108643478570527);
#136=CYLINDRICAL_SURFACE('',#1094,0.132382737554675);
#137=CYLINDRICAL_SURFACE('',#1097,0.632503689928608);
#138=CYLINDRICAL_SURFACE('',#1100,0.0613925155389444);
#139=CYLINDRICAL_SURFACE('',#1103,0.040807734921155);
#140=CYLINDRICAL_SURFACE('',#1106,0.0613925155389444);
#141=CYLINDRICAL_SURFACE('',#1109,0.632503689928608);
#142=CYLINDRICAL_SURFACE('',#1112,0.132382737554675);
#143=CYLINDRICAL_SURFACE('',#1115,0.108643478570527);
#144=CYLINDRICAL_SURFACE('',#1118,0.11320481792173);
#145=CYLINDRICAL_SURFACE('',#1121,0.040845987207422);
#146=CYLINDRICAL_SURFACE('',#1124,0.0371261750497164);
#147=CYLINDRICAL_SURFACE('',#1127,2.30750149103046);
#148=CYLINDRICAL_SURFACE('',#1130,1.83054251296411);
#149=CYLINDRICAL_SURFACE('',#1133,0.579780389593254);
#150=CYLINDRICAL_SURFACE('',#1136,0.766575682972054);
#151=CYLINDRICAL_SURFACE('',#1139,0.766575682972054);
#152=CYLINDRICAL_SURFACE('',#1142,0.579780389593254);
#153=CYLINDRICAL_SURFACE('',#1145,1.83054251296411);
#154=CYLINDRICAL_SURFACE('',#1148,0.040807734921155);
#155=CYLINDRICAL_SURFACE('',#1159,2.30750149103046);
#156=CYLINDRICAL_SURFACE('',#1164,0.985981941535938);
#157=FACE_OUTER_BOUND('',#209,.T.);
#158=FACE_OUTER_BOUND('',#210,.T.);
#159=FACE_OUTER_BOUND('',#211,.T.);
#160=FACE_OUTER_BOUND('',#212,.T.);
#161=FACE_OUTER_BOUND('',#213,.T.);
#162=FACE_OUTER_BOUND('',#214,.T.);
#163=FACE_OUTER_BOUND('',#215,.T.);
#164=FACE_OUTER_BOUND('',#216,.T.);
#165=FACE_OUTER_BOUND('',#217,.T.);
#166=FACE_OUTER_BOUND('',#218,.T.);
#167=FACE_OUTER_BOUND('',#219,.T.);
#168=FACE_OUTER_BOUND('',#220,.T.);
#169=FACE_OUTER_BOUND('',#221,.T.);
#170=FACE_OUTER_BOUND('',#222,.T.);
#171=FACE_OUTER_BOUND('',#223,.T.);
#172=FACE_OUTER_BOUND('',#224,.T.);
#173=FACE_OUTER_BOUND('',#225,.T.);
#174=FACE_OUTER_BOUND('',#226,.T.);
#175=FACE_OUTER_BOUND('',#227,.T.);
#176=FACE_OUTER_BOUND('',#228,.T.);
#177=FACE_OUTER_BOUND('',#229,.T.);
#178=FACE_OUTER_BOUND('',#230,.T.);
#179=FACE_OUTER_BOUND('',#231,.T.);
#180=FACE_OUTER_BOUND('',#232,.T.);
#181=FACE_OUTER_BOUND('',#233,.T.);
#182=FACE_OUTER_BOUND('',#234,.T.);
#183=FACE_OUTER_BOUND('',#235,.T.);
#184=FACE_OUTER_BOUND('',#236,.T.);
#185=FACE_OUTER_BOUND('',#237,.T.);
#186=FACE_OUTER_BOUND('',#238,.T.);
#187=FACE_OUTER_BOUND('',#239,.T.);
#188=FACE_OUTER_BOUND('',#240,.T.);
#189=FACE_OUTER_BOUND('',#241,.T.);
#190=FACE_OUTER_BOUND('',#242,.T.);
#191=FACE_OUTER_BOUND('',#243,.T.);
#192=FACE_OUTER_BOUND('',#244,.T.);
#193=FACE_OUTER_BOUND('',#245,.T.);
#194=FACE_OUTER_BOUND('',#246,.T.);
#195=FACE_OUTER_BOUND('',#247,.T.);
#196=FACE_OUTER_BOUND('',#248,.T.);
#197=FACE_OUTER_BOUND('',#249,.T.);
#198=FACE_OUTER_BOUND('',#250,.T.);
#199=FACE_OUTER_BOUND('',#251,.T.);
#200=FACE_OUTER_BOUND('',#252,.T.);
#201=FACE_OUTER_BOUND('',#253,.T.);
#202=FACE_OUTER_BOUND('',#254,.T.);
#203=FACE_OUTER_BOUND('',#255,.T.);
#204=FACE_OUTER_BOUND('',#256,.T.);
#205=FACE_OUTER_BOUND('',#257,.T.);
#206=FACE_OUTER_BOUND('',#258,.T.);
#207=FACE_OUTER_BOUND('',#259,.T.);
#208=FACE_OUTER_BOUND('',#260,.T.);
#209=EDGE_LOOP('',(#659,#660,#661,#662));
#210=EDGE_LOOP('',(#663,#664,#665,#666));
#211=EDGE_LOOP('',(#667,#668,#669,#670));
#212=EDGE_LOOP('',(#671,#672,#673,#674));
#213=EDGE_LOOP('',(#675,#676,#677,#678));
#214=EDGE_LOOP('',(#679,#680,#681,#682));
#215=EDGE_LOOP('',(#683,#684,#685,#686));
#216=EDGE_LOOP('',(#687,#688,#689,#690));
#217=EDGE_LOOP('',(#691,#692,#693,#694));
#218=EDGE_LOOP('',(#695,#696,#697,#698));
#219=EDGE_LOOP('',(#699,#700,#701,#702));
#220=EDGE_LOOP('',(#703,#704,#705,#706));
#221=EDGE_LOOP('',(#707,#708,#709,#710));
#222=EDGE_LOOP('',(#711,#712,#713,#714));
#223=EDGE_LOOP('',(#715,#716,#717,#718));
#224=EDGE_LOOP('',(#719,#720,#721,#722));
#225=EDGE_LOOP('',(#723,#724,#725,#726));
#226=EDGE_LOOP('',(#727,#728,#729,#730));
#227=EDGE_LOOP('',(#731,#732,#733,#734));
#228=EDGE_LOOP('',(#735,#736,#737,#738));
#229=EDGE_LOOP('',(#739,#740,#741,#742));
#230=EDGE_LOOP('',(#743,#744,#745,#746));
#231=EDGE_LOOP('',(#747,#748,#749,#750));
#232=EDGE_LOOP('',(#751,#752,#753,#754));
#233=EDGE_LOOP('',(#755,#756,#757,#758));
#234=EDGE_LOOP('',(#759,#760,#761,#762));
#235=EDGE_LOOP('',(#763,#764,#765,#766));
#236=EDGE_LOOP('',(#767,#768,#769,#770));
#237=EDGE_LOOP('',(#771,#772,#773,#774));
#238=EDGE_LOOP('',(#775,#776,#777,#778));
#239=EDGE_LOOP('',(#779,#780,#781,#782));
#240=EDGE_LOOP('',(#783,#784,#785,#786));
#241=EDGE_LOOP('',(#787,#788,#789,#790));
#242=EDGE_LOOP('',(#791,#792,#793,#794));
#243=EDGE_LOOP('',(#795,#796,#797,#798));
#244=EDGE_LOOP('',(#799,#800,#801,#802));
#245=EDGE_LOOP('',(#803,#804,#805,#806));
#246=EDGE_LOOP('',(#807,#808,#809,#810));
#247=EDGE_LOOP('',(#811,#812,#813,#814));
#248=EDGE_LOOP('',(#815,#816,#817,#818));
#249=EDGE_LOOP('',(#819,#820,#821,#822));
#250=EDGE_LOOP('',(#823,#824,#825,#826));
#251=EDGE_LOOP('',(#827,#828,#829,#830));
#252=EDGE_LOOP('',(#831,#832,#833,#834));
#253=EDGE_LOOP('',(#835,#836,#837,#838));
#254=EDGE_LOOP('',(#839,#840,#841,#842));
#255=EDGE_LOOP('',(#843,#844,#845,#846));
#256=EDGE_LOOP('',(#847,#848,#849,#850));
#257=EDGE_LOOP('',(#851,#852,#853,#854));
#258=EDGE_LOOP('',(#855,#856,#857,#858,#859,#860,#861,#862,#863,#864,#865,
#866,#867,#868,#869,#870,#871,#872,#873,#874,#875,#876,#877,#878,#879,#880,
#881,#882,#883,#884,#885,#886,#887,#888,#889,#890,#891,#892,#893,#894,#895,
#896,#897,#898,#899,#900,#901,#902,#903,#904));
#259=EDGE_LOOP('',(#905,#906,#907,#908));
#260=EDGE_LOOP('',(#909,#910,#911,#912,#913,#914,#915,#916,#917,#918,#919,
#920,#921,#922,#923,#924,#925,#926,#927,#928,#929,#930,#931,#932,#933,#934,
#935,#936,#937,#938,#939,#940,#941,#942,#943,#944,#945,#946,#947,#948,#949,
#950,#951,#952,#953,#954,#955,#956,#957,#958));
#261=LINE('',#1503,#335);
#262=LINE('',#1505,#336);
#263=LINE('',#1507,#337);
#264=LINE('',#1508,#338);
#265=LINE('',#1512,#339);
#266=LINE('',#1514,#340);
#267=LINE('',#1516,#341);
#268=LINE('',#1517,#342);
#269=LINE('',#1523,#343);
#270=LINE('',#1529,#344);
#271=LINE('',#1535,#345);
#272=LINE('',#1541,#346);
#273=LINE('',#1547,#347);
#274=LINE('',#1554,#348);
#275=LINE('',#1556,#349);
#276=LINE('',#1558,#350);
#277=LINE('',#1559,#351);
#278=LINE('',#1563,#352);
#279=LINE('',#1565,#353);
#280=LINE('',#1567,#354);
#281=LINE('',#1568,#355);
#282=LINE('',#1574,#356);
#283=LINE('',#1580,#357);
#284=LINE('',#1586,#358);
#285=LINE('',#1592,#359);
#286=LINE('',#1598,#360);
#287=LINE('',#1606,#361);
#288=LINE('',#1613,#362);
#289=LINE('',#1616,#363);
#290=LINE('',#1621,#364);
#291=LINE('',#1627,#365);
#292=LINE('',#1633,#366);
#293=LINE('',#1639,#367);
#294=LINE('',#1645,#368);
#295=LINE('',#1651,#369);
#296=LINE('',#1656,#370);
#297=LINE('',#1664,#371);
#298=LINE('',#1667,#372);
#299=LINE('',#1672,#373);
#300=LINE('',#1678,#374);
#301=LINE('',#1684,#375);
#302=LINE('',#1690,#376);
#303=LINE('',#1696,#377);
#304=LINE('',#1702,#378);
#305=LINE('',#1712,#379);
#306=LINE('',#1715,#380);
#307=LINE('',#1720,#381);
#308=LINE('',#1726,#382);
#309=LINE('',#1732,#383);
#310=LINE('',#1738,#384);
#311=LINE('',#1746,#385);
#312=LINE('',#1752,#386);
#313=LINE('',#1754,#387);
#314=LINE('',#1756,#388);
#315=LINE('',#1757,#389);
#316=LINE('',#1761,#390);
#317=LINE('',#1763,#391);
#318=LINE('',#1765,#392);
#319=LINE('',#1766,#393);
#320=LINE('',#1768,#394);
#321=LINE('',#1769,#395);
#322=LINE('',#1771,#396);
#323=LINE('',#1772,#397);
#324=LINE('',#1776,#398);
#325=LINE('',#1777,#399);
#326=LINE('',#1778,#400);
#327=LINE('',#1782,#401);
#328=LINE('',#1784,#402);
#329=LINE('',#1786,#403);
#330=LINE('',#1787,#404);
#331=LINE('',#1789,#405);
#332=LINE('',#1790,#406);
#333=LINE('',#1792,#407);
#334=LINE('',#1793,#408);
#335=VECTOR('',#1171,0.393700787401575);
#336=VECTOR('',#1172,0.393700787401575);
#337=VECTOR('',#1173,0.393700787401575);
#338=VECTOR('',#1174,0.393700787401575);
#339=VECTOR('',#1177,0.393700787401575);
#340=VECTOR('',#1178,0.393700787401575);
#341=VECTOR('',#1179,0.393700787401575);
#342=VECTOR('',#1180,0.393700787401575);
#343=VECTOR('',#1187,0.393700787401575);
#344=VECTOR('',#1194,0.393700787401575);
#345=VECTOR('',#1201,0.393700787401575);
#346=VECTOR('',#1208,0.393700787401575);
#347=VECTOR('',#1215,0.393700787401575);
#348=VECTOR('',#1224,0.393700787401575);
#349=VECTOR('',#1225,0.393700787401575);
#350=VECTOR('',#1226,0.393700787401575);
#351=VECTOR('',#1227,0.393700787401575);
#352=VECTOR('',#1230,0.393700787401575);
#353=VECTOR('',#1231,0.393700787401575);
#354=VECTOR('',#1232,0.393700787401575);
#355=VECTOR('',#1233,0.393700787401575);
#356=VECTOR('',#1240,0.393700787401575);
#357=VECTOR('',#1247,0.393700787401575);
#358=VECTOR('',#1254,0.393700787401575);
#359=VECTOR('',#1261,0.393700787401575);
#360=VECTOR('',#1268,0.393700787401575);
#361=VECTOR('',#1279,0.5);
#362=VECTOR('',#1286,0.5);
#363=VECTOR('',#1289,0.5);
#364=VECTOR('',#1294,0.5);
#365=VECTOR('',#1301,0.5);
#366=VECTOR('',#1308,0.5);
#367=VECTOR('',#1315,0.5);
#368=VECTOR('',#1322,0.5);
#369=VECTOR('',#1329,0.5);
#370=VECTOR('',#1334,0.78740157480315);
#371=VECTOR('',#1343,0.5);
#372=VECTOR('',#1346,0.5);
#373=VECTOR('',#1351,0.5);
#374=VECTOR('',#1358,0.5);
#375=VECTOR('',#1365,0.5);
#376=VECTOR('',#1372,0.5);
#377=VECTOR('',#1379,0.5);
#378=VECTOR('',#1386,0.5);
#379=VECTOR('',#1399,0.5);
#380=VECTOR('',#1402,0.5);
#381=VECTOR('',#1407,0.5);
#382=VECTOR('',#1414,0.5);
#383=VECTOR('',#1421,0.5);
#384=VECTOR('',#1428,0.5);
#385=VECTOR('',#1439,0.78740157480315);
#386=VECTOR('',#1446,0.393700787401575);
#387=VECTOR('',#1447,0.78740157480315);
#388=VECTOR('',#1448,0.393700787401575);
#389=VECTOR('',#1449,0.78740157480315);
#390=VECTOR('',#1452,0.393700787401575);
#391=VECTOR('',#1453,0.393700787401575);
#392=VECTOR('',#1454,0.393700787401575);
#393=VECTOR('',#1455,0.393700787401575);
#394=VECTOR('',#1458,0.393700787401575);
#395=VECTOR('',#1459,0.393700787401575);
#396=VECTOR('',#1462,0.393700787401575);
#397=VECTOR('',#1463,0.393700787401575);
#398=VECTOR('',#1466,0.393700787401575);
#399=VECTOR('',#1467,0.78740157480315);
#400=VECTOR('',#1468,0.78740157480315);
#401=VECTOR('',#1471,0.393700787401575);
#402=VECTOR('',#1472,0.393700787401575);
#403=VECTOR('',#1473,0.393700787401575);
#404=VECTOR('',#1474,0.393700787401575);
#405=VECTOR('',#1477,0.393700787401575);
#406=VECTOR('',#1478,0.393700787401575);
#407=VECTOR('',#1481,0.393700787401575);
#408=VECTOR('',#1482,0.393700787401575);
#409=VERTEX_POINT('',#1501);
#410=VERTEX_POINT('',#1502);
#411=VERTEX_POINT('',#1504);
#412=VERTEX_POINT('',#1506);
#413=VERTEX_POINT('',#1510);
#414=VERTEX_POINT('',#1511);
#415=VERTEX_POINT('',#1513);
#416=VERTEX_POINT('',#1515);
#417=VERTEX_POINT('',#1519);
#418=VERTEX_POINT('',#1521);
#419=VERTEX_POINT('',#1525);
#420=VERTEX_POINT('',#1527);
#421=VERTEX_POINT('',#1531);
#422=VERTEX_POINT('',#1533);
#423=VERTEX_POINT('',#1537);
#424=VERTEX_POINT('',#1539);
#425=VERTEX_POINT('',#1543);
#426=VERTEX_POINT('',#1545);
#427=VERTEX_POINT('',#1552);
#428=VERTEX_POINT('',#1553);
#429=VERTEX_POINT('',#1555);
#430=VERTEX_POINT('',#1557);
#431=VERTEX_POINT('',#1561);
#432=VERTEX_POINT('',#1562);
#433=VERTEX_POINT('',#1564);
#434=VERTEX_POINT('',#1566);
#435=VERTEX_POINT('',#1570);
#436=VERTEX_POINT('',#1572);
#437=VERTEX_POINT('',#1576);
#438=VERTEX_POINT('',#1578);
#439=VERTEX_POINT('',#1582);
#440=VERTEX_POINT('',#1584);
#441=VERTEX_POINT('',#1588);
#442=VERTEX_POINT('',#1590);
#443=VERTEX_POINT('',#1594);
#444=VERTEX_POINT('',#1596);
#445=VERTEX_POINT('',#1603);
#446=VERTEX_POINT('',#1605);
#447=VERTEX_POINT('',#1609);
#448=VERTEX_POINT('',#1610);
#449=VERTEX_POINT('',#1612);
#450=VERTEX_POINT('',#1614);
#451=VERTEX_POINT('',#1618);
#452=VERTEX_POINT('',#1620);
#453=VERTEX_POINT('',#1624);
#454=VERTEX_POINT('',#1626);
#455=VERTEX_POINT('',#1630);
#456=VERTEX_POINT('',#1632);
#457=VERTEX_POINT('',#1636);
#458=VERTEX_POINT('',#1638);
#459=VERTEX_POINT('',#1642);
#460=VERTEX_POINT('',#1644);
#461=VERTEX_POINT('',#1648);
#462=VERTEX_POINT('',#1650);
#463=VERTEX_POINT('',#1654);
#464=VERTEX_POINT('',#1655);
#465=VERTEX_POINT('',#1660);
#466=VERTEX_POINT('',#1661);
#467=VERTEX_POINT('',#1663);
#468=VERTEX_POINT('',#1665);
#469=VERTEX_POINT('',#1669);
#470=VERTEX_POINT('',#1671);
#471=VERTEX_POINT('',#1675);
#472=VERTEX_POINT('',#1677);
#473=VERTEX_POINT('',#1681);
#474=VERTEX_POINT('',#1683);
#475=VERTEX_POINT('',#1687);
#476=VERTEX_POINT('',#1689);
#477=VERTEX_POINT('',#1693);
#478=VERTEX_POINT('',#1695);
#479=VERTEX_POINT('',#1699);
#480=VERTEX_POINT('',#1701);
#481=VERTEX_POINT('',#1708);
#482=VERTEX_POINT('',#1709);
#483=VERTEX_POINT('',#1711);
#484=VERTEX_POINT('',#1713);
#485=VERTEX_POINT('',#1717);
#486=VERTEX_POINT('',#1719);
#487=VERTEX_POINT('',#1723);
#488=VERTEX_POINT('',#1725);
#489=VERTEX_POINT('',#1729);
#490=VERTEX_POINT('',#1731);
#491=VERTEX_POINT('',#1735);
#492=VERTEX_POINT('',#1737);
#493=VERTEX_POINT('',#1744);
#494=VERTEX_POINT('',#1745);
#495=VERTEX_POINT('',#1750);
#496=VERTEX_POINT('',#1751);
#497=VERTEX_POINT('',#1753);
#498=VERTEX_POINT('',#1755);
#499=VERTEX_POINT('',#1759);
#500=VERTEX_POINT('',#1760);
#501=VERTEX_POINT('',#1762);
#502=VERTEX_POINT('',#1764);
#503=VERTEX_POINT('',#1774);
#504=VERTEX_POINT('',#1775);
#505=VERTEX_POINT('',#1780);
#506=VERTEX_POINT('',#1781);
#507=VERTEX_POINT('',#1783);
#508=VERTEX_POINT('',#1785);
#509=EDGE_CURVE('',#409,#410,#261,.T.);
#510=EDGE_CURVE('',#411,#409,#262,.T.);
#511=EDGE_CURVE('',#412,#411,#263,.T.);
#512=EDGE_CURVE('',#410,#412,#264,.T.);
#513=EDGE_CURVE('',#413,#414,#265,.T.);
#514=EDGE_CURVE('',#415,#413,#266,.T.);
#515=EDGE_CURVE('',#415,#416,#267,.T.);
#516=EDGE_CURVE('',#414,#416,#268,.T.);
#517=EDGE_CURVE('',#417,#412,#43,.T.);
#518=EDGE_CURVE('',#418,#411,#44,.T.);
#519=EDGE_CURVE('',#417,#418,#269,.T.);
#520=EDGE_CURVE('',#417,#419,#45,.T.);
#521=EDGE_CURVE('',#420,#418,#46,.T.);
#522=EDGE_CURVE('',#419,#420,#270,.T.);
#523=EDGE_CURVE('',#419,#421,#47,.T.);
#524=EDGE_CURVE('',#422,#420,#48,.T.);
#525=EDGE_CURVE('',#421,#422,#271,.T.);
#526=EDGE_CURVE('',#423,#421,#49,.T.);
#527=EDGE_CURVE('',#424,#422,#50,.T.);
#528=EDGE_CURVE('',#423,#424,#272,.T.);
#529=EDGE_CURVE('',#425,#423,#51,.T.);
#530=EDGE_CURVE('',#426,#424,#52,.T.);
#531=EDGE_CURVE('',#425,#426,#273,.T.);
#532=EDGE_CURVE('',#425,#415,#53,.T.);
#533=EDGE_CURVE('',#416,#426,#54,.T.);
#534=EDGE_CURVE('',#427,#428,#274,.T.);
#535=EDGE_CURVE('',#429,#427,#275,.T.);
#536=EDGE_CURVE('',#430,#429,#276,.T.);
#537=EDGE_CURVE('',#428,#430,#277,.T.);
#538=EDGE_CURVE('',#431,#432,#278,.T.);
#539=EDGE_CURVE('',#433,#431,#279,.T.);
#540=EDGE_CURVE('',#433,#434,#280,.T.);
#541=EDGE_CURVE('',#432,#434,#281,.T.);
#542=EDGE_CURVE('',#435,#430,#55,.T.);
#543=EDGE_CURVE('',#436,#429,#56,.T.);
#544=EDGE_CURVE('',#435,#436,#282,.T.);
#545=EDGE_CURVE('',#435,#437,#57,.T.);
#546=EDGE_CURVE('',#438,#436,#58,.T.);
#547=EDGE_CURVE('',#437,#438,#283,.T.);
#548=EDGE_CURVE('',#437,#439,#59,.T.);
#549=EDGE_CURVE('',#440,#438,#60,.T.);
#550=EDGE_CURVE('',#439,#440,#284,.T.);
#551=EDGE_CURVE('',#441,#439,#61,.T.);
#552=EDGE_CURVE('',#442,#440,#62,.T.);
#553=EDGE_CURVE('',#441,#442,#285,.T.);
#554=EDGE_CURVE('',#443,#441,#63,.T.);
#555=EDGE_CURVE('',#444,#442,#64,.T.);
#556=EDGE_CURVE('',#443,#444,#286,.T.);
#557=EDGE_CURVE('',#443,#433,#65,.T.);
#558=EDGE_CURVE('',#434,#444,#66,.T.);
#559=EDGE_CURVE('',#445,#432,#67,.T.);
#560=EDGE_CURVE('',#446,#445,#287,.T.);
#561=EDGE_CURVE('',#446,#431,#68,.T.);
#562=EDGE_CURVE('',#447,#448,#69,.T.);
#563=EDGE_CURVE('',#448,#449,#288,.T.);
#564=EDGE_CURVE('',#450,#449,#70,.T.);
#565=EDGE_CURVE('',#447,#450,#289,.T.);
#566=EDGE_CURVE('',#448,#451,#71,.T.);
#567=EDGE_CURVE('',#451,#452,#290,.T.);
#568=EDGE_CURVE('',#449,#452,#72,.T.);
#569=EDGE_CURVE('',#451,#453,#73,.T.);
#570=EDGE_CURVE('',#453,#454,#291,.T.);
#571=EDGE_CURVE('',#452,#454,#74,.T.);
#572=EDGE_CURVE('',#453,#455,#75,.T.);
#573=EDGE_CURVE('',#455,#456,#292,.T.);
#574=EDGE_CURVE('',#454,#456,#76,.T.);
#575=EDGE_CURVE('',#455,#457,#77,.T.);
#576=EDGE_CURVE('',#457,#458,#293,.T.);
#577=EDGE_CURVE('',#456,#458,#78,.T.);
#578=EDGE_CURVE('',#457,#459,#79,.T.);
#579=EDGE_CURVE('',#459,#460,#294,.T.);
#580=EDGE_CURVE('',#458,#460,#80,.T.);
#581=EDGE_CURVE('',#459,#461,#81,.T.);
#582=EDGE_CURVE('',#461,#462,#295,.T.);
#583=EDGE_CURVE('',#460,#462,#82,.T.);
#584=EDGE_CURVE('',#463,#464,#296,.T.);
#585=EDGE_CURVE('',#462,#464,#83,.T.);
#586=EDGE_CURVE('',#461,#463,#84,.T.);
#587=EDGE_CURVE('',#465,#466,#85,.T.);
#588=EDGE_CURVE('',#466,#467,#297,.T.);
#589=EDGE_CURVE('',#468,#467,#86,.T.);
#590=EDGE_CURVE('',#465,#468,#298,.T.);
#591=EDGE_CURVE('',#466,#469,#87,.T.);
#592=EDGE_CURVE('',#469,#470,#299,.T.);
#593=EDGE_CURVE('',#467,#470,#88,.T.);
#594=EDGE_CURVE('',#469,#471,#89,.T.);
#595=EDGE_CURVE('',#471,#472,#300,.T.);
#596=EDGE_CURVE('',#470,#472,#90,.T.);
#597=EDGE_CURVE('',#471,#473,#91,.T.);
#598=EDGE_CURVE('',#473,#474,#301,.T.);
#599=EDGE_CURVE('',#472,#474,#92,.T.);
#600=EDGE_CURVE('',#473,#475,#93,.T.);
#601=EDGE_CURVE('',#475,#476,#302,.T.);
#602=EDGE_CURVE('',#474,#476,#94,.T.);
#603=EDGE_CURVE('',#475,#477,#95,.T.);
#604=EDGE_CURVE('',#477,#478,#303,.T.);
#605=EDGE_CURVE('',#476,#478,#96,.T.);
#606=EDGE_CURVE('',#477,#479,#97,.T.);
#607=EDGE_CURVE('',#479,#480,#304,.T.);
#608=EDGE_CURVE('',#478,#480,#98,.T.);
#609=EDGE_CURVE('',#480,#410,#99,.T.);
#610=EDGE_CURVE('',#479,#409,#100,.T.);
#611=EDGE_CURVE('',#481,#482,#101,.T.);
#612=EDGE_CURVE('',#482,#483,#305,.T.);
#613=EDGE_CURVE('',#484,#483,#102,.T.);
#614=EDGE_CURVE('',#481,#484,#306,.T.);
#615=EDGE_CURVE('',#482,#485,#103,.T.);
#616=EDGE_CURVE('',#485,#486,#307,.T.);
#617=EDGE_CURVE('',#483,#486,#104,.T.);
#618=EDGE_CURVE('',#485,#487,#105,.T.);
#619=EDGE_CURVE('',#487,#488,#308,.T.);
#620=EDGE_CURVE('',#486,#488,#106,.T.);
#621=EDGE_CURVE('',#487,#489,#107,.T.);
#622=EDGE_CURVE('',#489,#490,#309,.T.);
#623=EDGE_CURVE('',#488,#490,#108,.T.);
#624=EDGE_CURVE('',#489,#491,#109,.T.);
#625=EDGE_CURVE('',#491,#492,#310,.T.);
#626=EDGE_CURVE('',#490,#492,#110,.T.);
#627=EDGE_CURVE('',#491,#446,#111,.T.);
#628=EDGE_CURVE('',#492,#445,#112,.T.);
#629=EDGE_CURVE('',#493,#494,#311,.T.);
#630=EDGE_CURVE('',#494,#465,#113,.T.);
#631=EDGE_CURVE('',#493,#468,#114,.T.);
#632=EDGE_CURVE('',#495,#496,#312,.T.);
#633=EDGE_CURVE('',#497,#496,#313,.T.);
#634=EDGE_CURVE('',#497,#498,#314,.T.);
#635=EDGE_CURVE('',#495,#498,#315,.T.);
#636=EDGE_CURVE('',#499,#500,#316,.T.);
#637=EDGE_CURVE('',#500,#501,#317,.T.);
#638=EDGE_CURVE('',#501,#502,#318,.T.);
#639=EDGE_CURVE('',#502,#499,#319,.T.);
#640=EDGE_CURVE('',#497,#501,#320,.T.);
#641=EDGE_CURVE('',#498,#500,#321,.T.);
#642=EDGE_CURVE('',#493,#499,#322,.T.);
#643=EDGE_CURVE('',#494,#502,#323,.T.);
#644=EDGE_CURVE('',#503,#504,#324,.T.);
#645=EDGE_CURVE('',#464,#504,#325,.T.);
#646=EDGE_CURVE('',#503,#463,#326,.T.);
#647=EDGE_CURVE('',#505,#506,#327,.T.);
#648=EDGE_CURVE('',#506,#507,#328,.T.);
#649=EDGE_CURVE('',#507,#508,#329,.T.);
#650=EDGE_CURVE('',#508,#505,#330,.T.);
#651=EDGE_CURVE('',#503,#506,#331,.T.);
#652=EDGE_CURVE('',#504,#505,#332,.T.);
#653=EDGE_CURVE('',#495,#508,#333,.T.);
#654=EDGE_CURVE('',#496,#507,#334,.T.);
#655=EDGE_CURVE('',#428,#447,#115,.T.);
#656=EDGE_CURVE('',#427,#450,#116,.T.);
#657=EDGE_CURVE('',#414,#481,#117,.T.);
#658=EDGE_CURVE('',#413,#484,#118,.T.);
#659=ORIENTED_EDGE('',*,*,#509,.F.);
#660=ORIENTED_EDGE('',*,*,#510,.F.);
#661=ORIENTED_EDGE('',*,*,#511,.F.);
#662=ORIENTED_EDGE('',*,*,#512,.F.);
#663=ORIENTED_EDGE('',*,*,#513,.F.);
#664=ORIENTED_EDGE('',*,*,#514,.F.);
#665=ORIENTED_EDGE('',*,*,#515,.T.);
#666=ORIENTED_EDGE('',*,*,#516,.F.);
#667=ORIENTED_EDGE('',*,*,#517,.T.);
#668=ORIENTED_EDGE('',*,*,#511,.T.);
#669=ORIENTED_EDGE('',*,*,#518,.F.);
#670=ORIENTED_EDGE('',*,*,#519,.F.);
#671=ORIENTED_EDGE('',*,*,#520,.F.);
#672=ORIENTED_EDGE('',*,*,#519,.T.);
#673=ORIENTED_EDGE('',*,*,#521,.F.);
#674=ORIENTED_EDGE('',*,*,#522,.F.);
#675=ORIENTED_EDGE('',*,*,#523,.F.);
#676=ORIENTED_EDGE('',*,*,#522,.T.);
#677=ORIENTED_EDGE('',*,*,#524,.F.);
#678=ORIENTED_EDGE('',*,*,#525,.F.);
#679=ORIENTED_EDGE('',*,*,#526,.T.);
#680=ORIENTED_EDGE('',*,*,#525,.T.);
#681=ORIENTED_EDGE('',*,*,#527,.F.);
#682=ORIENTED_EDGE('',*,*,#528,.F.);
#683=ORIENTED_EDGE('',*,*,#529,.T.);
#684=ORIENTED_EDGE('',*,*,#528,.T.);
#685=ORIENTED_EDGE('',*,*,#530,.F.);
#686=ORIENTED_EDGE('',*,*,#531,.F.);
#687=ORIENTED_EDGE('',*,*,#532,.F.);
#688=ORIENTED_EDGE('',*,*,#531,.T.);
#689=ORIENTED_EDGE('',*,*,#533,.F.);
#690=ORIENTED_EDGE('',*,*,#515,.F.);
#691=ORIENTED_EDGE('',*,*,#534,.F.);
#692=ORIENTED_EDGE('',*,*,#535,.F.);
#693=ORIENTED_EDGE('',*,*,#536,.F.);
#694=ORIENTED_EDGE('',*,*,#537,.F.);
#695=ORIENTED_EDGE('',*,*,#538,.F.);
#696=ORIENTED_EDGE('',*,*,#539,.F.);
#697=ORIENTED_EDGE('',*,*,#540,.T.);
#698=ORIENTED_EDGE('',*,*,#541,.F.);
#699=ORIENTED_EDGE('',*,*,#542,.T.);
#700=ORIENTED_EDGE('',*,*,#536,.T.);
#701=ORIENTED_EDGE('',*,*,#543,.F.);
#702=ORIENTED_EDGE('',*,*,#544,.F.);
#703=ORIENTED_EDGE('',*,*,#545,.F.);
#704=ORIENTED_EDGE('',*,*,#544,.T.);
#705=ORIENTED_EDGE('',*,*,#546,.F.);
#706=ORIENTED_EDGE('',*,*,#547,.F.);
#707=ORIENTED_EDGE('',*,*,#548,.F.);
#708=ORIENTED_EDGE('',*,*,#547,.T.);
#709=ORIENTED_EDGE('',*,*,#549,.F.);
#710=ORIENTED_EDGE('',*,*,#550,.F.);
#711=ORIENTED_EDGE('',*,*,#551,.T.);
#712=ORIENTED_EDGE('',*,*,#550,.T.);
#713=ORIENTED_EDGE('',*,*,#552,.F.);
#714=ORIENTED_EDGE('',*,*,#553,.F.);
#715=ORIENTED_EDGE('',*,*,#554,.T.);
#716=ORIENTED_EDGE('',*,*,#553,.T.);
#717=ORIENTED_EDGE('',*,*,#555,.F.);
#718=ORIENTED_EDGE('',*,*,#556,.F.);
#719=ORIENTED_EDGE('',*,*,#557,.F.);
#720=ORIENTED_EDGE('',*,*,#556,.T.);
#721=ORIENTED_EDGE('',*,*,#558,.F.);
#722=ORIENTED_EDGE('',*,*,#540,.F.);
#723=ORIENTED_EDGE('',*,*,#538,.T.);
#724=ORIENTED_EDGE('',*,*,#559,.F.);
#725=ORIENTED_EDGE('',*,*,#560,.F.);
#726=ORIENTED_EDGE('',*,*,#561,.T.);
#727=ORIENTED_EDGE('',*,*,#562,.T.);
#728=ORIENTED_EDGE('',*,*,#563,.T.);
#729=ORIENTED_EDGE('',*,*,#564,.F.);
#730=ORIENTED_EDGE('',*,*,#565,.F.);
#731=ORIENTED_EDGE('',*,*,#566,.T.);
#732=ORIENTED_EDGE('',*,*,#567,.T.);
#733=ORIENTED_EDGE('',*,*,#568,.F.);
#734=ORIENTED_EDGE('',*,*,#563,.F.);
#735=ORIENTED_EDGE('',*,*,#569,.T.);
#736=ORIENTED_EDGE('',*,*,#570,.T.);
#737=ORIENTED_EDGE('',*,*,#571,.F.);
#738=ORIENTED_EDGE('',*,*,#567,.F.);
#739=ORIENTED_EDGE('',*,*,#572,.T.);
#740=ORIENTED_EDGE('',*,*,#573,.T.);
#741=ORIENTED_EDGE('',*,*,#574,.F.);
#742=ORIENTED_EDGE('',*,*,#570,.F.);
#743=ORIENTED_EDGE('',*,*,#575,.T.);
#744=ORIENTED_EDGE('',*,*,#576,.T.);
#745=ORIENTED_EDGE('',*,*,#577,.F.);
#746=ORIENTED_EDGE('',*,*,#573,.F.);
#747=ORIENTED_EDGE('',*,*,#578,.T.);
#748=ORIENTED_EDGE('',*,*,#579,.T.);
#749=ORIENTED_EDGE('',*,*,#580,.F.);
#750=ORIENTED_EDGE('',*,*,#576,.F.);
#751=ORIENTED_EDGE('',*,*,#581,.T.);
#752=ORIENTED_EDGE('',*,*,#582,.T.);
#753=ORIENTED_EDGE('',*,*,#583,.F.);
#754=ORIENTED_EDGE('',*,*,#579,.F.);
#755=ORIENTED_EDGE('',*,*,#584,.T.);
#756=ORIENTED_EDGE('',*,*,#585,.F.);
#757=ORIENTED_EDGE('',*,*,#582,.F.);
#758=ORIENTED_EDGE('',*,*,#586,.T.);
#759=ORIENTED_EDGE('',*,*,#587,.T.);
#760=ORIENTED_EDGE('',*,*,#588,.T.);
#761=ORIENTED_EDGE('',*,*,#589,.F.);
#762=ORIENTED_EDGE('',*,*,#590,.F.);
#763=ORIENTED_EDGE('',*,*,#591,.T.);
#764=ORIENTED_EDGE('',*,*,#592,.T.);
#765=ORIENTED_EDGE('',*,*,#593,.F.);
#766=ORIENTED_EDGE('',*,*,#588,.F.);
#767=ORIENTED_EDGE('',*,*,#594,.T.);
#768=ORIENTED_EDGE('',*,*,#595,.T.);
#769=ORIENTED_EDGE('',*,*,#596,.F.);
#770=ORIENTED_EDGE('',*,*,#592,.F.);
#771=ORIENTED_EDGE('',*,*,#597,.T.);
#772=ORIENTED_EDGE('',*,*,#598,.T.);
#773=ORIENTED_EDGE('',*,*,#599,.F.);
#774=ORIENTED_EDGE('',*,*,#595,.F.);
#775=ORIENTED_EDGE('',*,*,#600,.T.);
#776=ORIENTED_EDGE('',*,*,#601,.T.);
#777=ORIENTED_EDGE('',*,*,#602,.F.);
#778=ORIENTED_EDGE('',*,*,#598,.F.);
#779=ORIENTED_EDGE('',*,*,#603,.T.);
#780=ORIENTED_EDGE('',*,*,#604,.T.);
#781=ORIENTED_EDGE('',*,*,#605,.F.);
#782=ORIENTED_EDGE('',*,*,#601,.F.);
#783=ORIENTED_EDGE('',*,*,#606,.T.);
#784=ORIENTED_EDGE('',*,*,#607,.T.);
#785=ORIENTED_EDGE('',*,*,#608,.F.);
#786=ORIENTED_EDGE('',*,*,#604,.F.);
#787=ORIENTED_EDGE('',*,*,#509,.T.);
#788=ORIENTED_EDGE('',*,*,#609,.F.);
#789=ORIENTED_EDGE('',*,*,#607,.F.);
#790=ORIENTED_EDGE('',*,*,#610,.T.);
#791=ORIENTED_EDGE('',*,*,#611,.T.);
#792=ORIENTED_EDGE('',*,*,#612,.T.);
#793=ORIENTED_EDGE('',*,*,#613,.F.);
#794=ORIENTED_EDGE('',*,*,#614,.F.);
#795=ORIENTED_EDGE('',*,*,#615,.T.);
#796=ORIENTED_EDGE('',*,*,#616,.T.);
#797=ORIENTED_EDGE('',*,*,#617,.F.);
#798=ORIENTED_EDGE('',*,*,#612,.F.);
#799=ORIENTED_EDGE('',*,*,#618,.T.);
#800=ORIENTED_EDGE('',*,*,#619,.T.);
#801=ORIENTED_EDGE('',*,*,#620,.F.);
#802=ORIENTED_EDGE('',*,*,#616,.F.);
#803=ORIENTED_EDGE('',*,*,#621,.T.);
#804=ORIENTED_EDGE('',*,*,#622,.T.);
#805=ORIENTED_EDGE('',*,*,#623,.F.);
#806=ORIENTED_EDGE('',*,*,#619,.F.);
#807=ORIENTED_EDGE('',*,*,#624,.T.);
#808=ORIENTED_EDGE('',*,*,#625,.T.);
#809=ORIENTED_EDGE('',*,*,#626,.F.);
#810=ORIENTED_EDGE('',*,*,#622,.F.);
#811=ORIENTED_EDGE('',*,*,#627,.T.);
#812=ORIENTED_EDGE('',*,*,#560,.T.);
#813=ORIENTED_EDGE('',*,*,#628,.F.);
#814=ORIENTED_EDGE('',*,*,#625,.F.);
#815=ORIENTED_EDGE('',*,*,#629,.T.);
#816=ORIENTED_EDGE('',*,*,#630,.T.);
#817=ORIENTED_EDGE('',*,*,#590,.T.);
#818=ORIENTED_EDGE('',*,*,#631,.F.);
#819=ORIENTED_EDGE('',*,*,#632,.T.);
#820=ORIENTED_EDGE('',*,*,#633,.F.);
#821=ORIENTED_EDGE('',*,*,#634,.T.);
#822=ORIENTED_EDGE('',*,*,#635,.F.);
#823=ORIENTED_EDGE('',*,*,#636,.T.);
#824=ORIENTED_EDGE('',*,*,#637,.T.);
#825=ORIENTED_EDGE('',*,*,#638,.T.);
#826=ORIENTED_EDGE('',*,*,#639,.T.);
#827=ORIENTED_EDGE('',*,*,#634,.F.);
#828=ORIENTED_EDGE('',*,*,#640,.T.);
#829=ORIENTED_EDGE('',*,*,#637,.F.);
#830=ORIENTED_EDGE('',*,*,#641,.F.);
#831=ORIENTED_EDGE('',*,*,#629,.F.);
#832=ORIENTED_EDGE('',*,*,#642,.T.);
#833=ORIENTED_EDGE('',*,*,#639,.F.);
#834=ORIENTED_EDGE('',*,*,#643,.F.);
#835=ORIENTED_EDGE('',*,*,#644,.T.);
#836=ORIENTED_EDGE('',*,*,#645,.F.);
#837=ORIENTED_EDGE('',*,*,#584,.F.);
#838=ORIENTED_EDGE('',*,*,#646,.F.);
#839=ORIENTED_EDGE('',*,*,#647,.T.);
#840=ORIENTED_EDGE('',*,*,#648,.T.);
#841=ORIENTED_EDGE('',*,*,#649,.T.);
#842=ORIENTED_EDGE('',*,*,#650,.T.);
#843=ORIENTED_EDGE('',*,*,#644,.F.);
#844=ORIENTED_EDGE('',*,*,#651,.T.);
#845=ORIENTED_EDGE('',*,*,#647,.F.);
#846=ORIENTED_EDGE('',*,*,#652,.F.);
#847=ORIENTED_EDGE('',*,*,#632,.F.);
#848=ORIENTED_EDGE('',*,*,#653,.T.);
#849=ORIENTED_EDGE('',*,*,#649,.F.);
#850=ORIENTED_EDGE('',*,*,#654,.F.);
#851=ORIENTED_EDGE('',*,*,#534,.T.);
#852=ORIENTED_EDGE('',*,*,#655,.T.);
#853=ORIENTED_EDGE('',*,*,#565,.T.);
#854=ORIENTED_EDGE('',*,*,#656,.F.);
#855=ORIENTED_EDGE('',*,*,#610,.F.);
#856=ORIENTED_EDGE('',*,*,#606,.F.);
#857=ORIENTED_EDGE('',*,*,#603,.F.);
#858=ORIENTED_EDGE('',*,*,#600,.F.);
#859=ORIENTED_EDGE('',*,*,#597,.F.);
#860=ORIENTED_EDGE('',*,*,#594,.F.);
#861=ORIENTED_EDGE('',*,*,#591,.F.);
#862=ORIENTED_EDGE('',*,*,#587,.F.);
#863=ORIENTED_EDGE('',*,*,#630,.F.);
#864=ORIENTED_EDGE('',*,*,#643,.T.);
#865=ORIENTED_EDGE('',*,*,#638,.F.);
#866=ORIENTED_EDGE('',*,*,#640,.F.);
#867=ORIENTED_EDGE('',*,*,#633,.T.);
#868=ORIENTED_EDGE('',*,*,#654,.T.);
#869=ORIENTED_EDGE('',*,*,#648,.F.);
#870=ORIENTED_EDGE('',*,*,#651,.F.);
#871=ORIENTED_EDGE('',*,*,#646,.T.);
#872=ORIENTED_EDGE('',*,*,#586,.F.);
#873=ORIENTED_EDGE('',*,*,#581,.F.);
#874=ORIENTED_EDGE('',*,*,#578,.F.);
#875=ORIENTED_EDGE('',*,*,#575,.F.);
#876=ORIENTED_EDGE('',*,*,#572,.F.);
#877=ORIENTED_EDGE('',*,*,#569,.F.);
#878=ORIENTED_EDGE('',*,*,#566,.F.);
#879=ORIENTED_EDGE('',*,*,#562,.F.);
#880=ORIENTED_EDGE('',*,*,#655,.F.);
#881=ORIENTED_EDGE('',*,*,#537,.T.);
#882=ORIENTED_EDGE('',*,*,#542,.F.);
#883=ORIENTED_EDGE('',*,*,#545,.T.);
#884=ORIENTED_EDGE('',*,*,#548,.T.);
#885=ORIENTED_EDGE('',*,*,#551,.F.);
#886=ORIENTED_EDGE('',*,*,#554,.F.);
#887=ORIENTED_EDGE('',*,*,#557,.T.);
#888=ORIENTED_EDGE('',*,*,#539,.T.);
#889=ORIENTED_EDGE('',*,*,#561,.F.);
#890=ORIENTED_EDGE('',*,*,#627,.F.);
#891=ORIENTED_EDGE('',*,*,#624,.F.);
#892=ORIENTED_EDGE('',*,*,#621,.F.);
#893=ORIENTED_EDGE('',*,*,#618,.F.);
#894=ORIENTED_EDGE('',*,*,#615,.F.);
#895=ORIENTED_EDGE('',*,*,#611,.F.);
#896=ORIENTED_EDGE('',*,*,#657,.F.);
#897=ORIENTED_EDGE('',*,*,#516,.T.);
#898=ORIENTED_EDGE('',*,*,#533,.T.);
#899=ORIENTED_EDGE('',*,*,#530,.T.);
#900=ORIENTED_EDGE('',*,*,#527,.T.);
#901=ORIENTED_EDGE('',*,*,#524,.T.);
#902=ORIENTED_EDGE('',*,*,#521,.T.);
#903=ORIENTED_EDGE('',*,*,#518,.T.);
#904=ORIENTED_EDGE('',*,*,#510,.T.);
#905=ORIENTED_EDGE('',*,*,#513,.T.);
#906=ORIENTED_EDGE('',*,*,#657,.T.);
#907=ORIENTED_EDGE('',*,*,#614,.T.);
#908=ORIENTED_EDGE('',*,*,#658,.F.);
#909=ORIENTED_EDGE('',*,*,#658,.T.);
#910=ORIENTED_EDGE('',*,*,#613,.T.);
#911=ORIENTED_EDGE('',*,*,#617,.T.);
#912=ORIENTED_EDGE('',*,*,#620,.T.);
#913=ORIENTED_EDGE('',*,*,#623,.T.);
#914=ORIENTED_EDGE('',*,*,#626,.T.);
#915=ORIENTED_EDGE('',*,*,#628,.T.);
#916=ORIENTED_EDGE('',*,*,#559,.T.);
#917=ORIENTED_EDGE('',*,*,#541,.T.);
#918=ORIENTED_EDGE('',*,*,#558,.T.);
#919=ORIENTED_EDGE('',*,*,#555,.T.);
#920=ORIENTED_EDGE('',*,*,#552,.T.);
#921=ORIENTED_EDGE('',*,*,#549,.T.);
#922=ORIENTED_EDGE('',*,*,#546,.T.);
#923=ORIENTED_EDGE('',*,*,#543,.T.);
#924=ORIENTED_EDGE('',*,*,#535,.T.);
#925=ORIENTED_EDGE('',*,*,#656,.T.);
#926=ORIENTED_EDGE('',*,*,#564,.T.);
#927=ORIENTED_EDGE('',*,*,#568,.T.);
#928=ORIENTED_EDGE('',*,*,#571,.T.);
#929=ORIENTED_EDGE('',*,*,#574,.T.);
#930=ORIENTED_EDGE('',*,*,#577,.T.);
#931=ORIENTED_EDGE('',*,*,#580,.T.);
#932=ORIENTED_EDGE('',*,*,#583,.T.);
#933=ORIENTED_EDGE('',*,*,#585,.T.);
#934=ORIENTED_EDGE('',*,*,#645,.T.);
#935=ORIENTED_EDGE('',*,*,#652,.T.);
#936=ORIENTED_EDGE('',*,*,#650,.F.);
#937=ORIENTED_EDGE('',*,*,#653,.F.);
#938=ORIENTED_EDGE('',*,*,#635,.T.);
#939=ORIENTED_EDGE('',*,*,#641,.T.);
#940=ORIENTED_EDGE('',*,*,#636,.F.);
#941=ORIENTED_EDGE('',*,*,#642,.F.);
#942=ORIENTED_EDGE('',*,*,#631,.T.);
#943=ORIENTED_EDGE('',*,*,#589,.T.);
#944=ORIENTED_EDGE('',*,*,#593,.T.);
#945=ORIENTED_EDGE('',*,*,#596,.T.);
#946=ORIENTED_EDGE('',*,*,#599,.T.);
#947=ORIENTED_EDGE('',*,*,#602,.T.);
#948=ORIENTED_EDGE('',*,*,#605,.T.);
#949=ORIENTED_EDGE('',*,*,#608,.T.);
#950=ORIENTED_EDGE('',*,*,#609,.T.);
#951=ORIENTED_EDGE('',*,*,#512,.T.);
#952=ORIENTED_EDGE('',*,*,#517,.F.);
#953=ORIENTED_EDGE('',*,*,#520,.T.);
#954=ORIENTED_EDGE('',*,*,#523,.T.);
#955=ORIENTED_EDGE('',*,*,#526,.F.);
#956=ORIENTED_EDGE('',*,*,#529,.F.);
#957=ORIENTED_EDGE('',*,*,#532,.T.);
#958=ORIENTED_EDGE('',*,*,#514,.T.);
#959=PLANE('',#1039);
#960=PLANE('',#1040);
#961=PLANE('',#1059);
#962=PLANE('',#1060);
#963=PLANE('',#1151);
#964=PLANE('',#1152);
#965=PLANE('',#1153);
#966=PLANE('',#1154);
#967=PLANE('',#1155);
#968=PLANE('',#1156);
#969=PLANE('',#1157);
#970=PLANE('',#1158);
#971=PLANE('',#1162);
#972=PLANE('',#1166);
#973=ADVANCED_FACE('',(#157),#959,.T.);
#974=ADVANCED_FACE('',(#158),#960,.T.);
#975=ADVANCED_FACE('',(#159),#119,.F.);
#976=ADVANCED_FACE('',(#160),#120,.T.);
#977=ADVANCED_FACE('',(#161),#121,.T.);
#978=ADVANCED_FACE('',(#162),#122,.F.);
#979=ADVANCED_FACE('',(#163),#123,.F.);
#980=ADVANCED_FACE('',(#164),#124,.T.);
#981=ADVANCED_FACE('',(#165),#961,.T.);
#982=ADVANCED_FACE('',(#166),#962,.T.);
#983=ADVANCED_FACE('',(#167),#125,.F.);
#984=ADVANCED_FACE('',(#168),#126,.T.);
#985=ADVANCED_FACE('',(#169),#127,.T.);
#986=ADVANCED_FACE('',(#170),#128,.F.);
#987=ADVANCED_FACE('',(#171),#129,.F.);
#988=ADVANCED_FACE('',(#172),#130,.T.);
#989=ADVANCED_FACE('',(#173),#131,.T.);
#990=ADVANCED_FACE('',(#174),#132,.F.);
#991=ADVANCED_FACE('',(#175),#133,.F.);
#992=ADVANCED_FACE('',(#176),#134,.T.);
#993=ADVANCED_FACE('',(#177),#135,.T.);
#994=ADVANCED_FACE('',(#178),#136,.T.);
#995=ADVANCED_FACE('',(#179),#137,.T.);
#996=ADVANCED_FACE('',(#180),#138,.F.);
#997=ADVANCED_FACE('',(#181),#139,.F.);
#998=ADVANCED_FACE('',(#182),#140,.F.);
#999=ADVANCED_FACE('',(#183),#141,.T.);
#1000=ADVANCED_FACE('',(#184),#142,.T.);
#1001=ADVANCED_FACE('',(#185),#143,.T.);
#1002=ADVANCED_FACE('',(#186),#144,.T.);
#1003=ADVANCED_FACE('',(#187),#145,.F.);
#1004=ADVANCED_FACE('',(#188),#146,.F.);
#1005=ADVANCED_FACE('',(#189),#147,.T.);
#1006=ADVANCED_FACE('',(#190),#148,.F.);
#1007=ADVANCED_FACE('',(#191),#149,.F.);
#1008=ADVANCED_FACE('',(#192),#150,.T.);
#1009=ADVANCED_FACE('',(#193),#151,.T.);
#1010=ADVANCED_FACE('',(#194),#152,.F.);
#1011=ADVANCED_FACE('',(#195),#153,.F.);
#1012=ADVANCED_FACE('',(#196),#154,.F.);
#1013=ADVANCED_FACE('',(#197),#963,.F.);
#1014=ADVANCED_FACE('',(#198),#964,.T.);
#1015=ADVANCED_FACE('',(#199),#965,.T.);
#1016=ADVANCED_FACE('',(#200),#966,.T.);
#1017=ADVANCED_FACE('',(#201),#967,.F.);
#1018=ADVANCED_FACE('',(#202),#968,.T.);
#1019=ADVANCED_FACE('',(#203),#969,.T.);
#1020=ADVANCED_FACE('',(#204),#970,.T.);
#1021=ADVANCED_FACE('',(#205),#155,.T.);
#1022=ADVANCED_FACE('',(#206),#971,.F.);
#1023=ADVANCED_FACE('',(#207),#156,.T.);
#1024=ADVANCED_FACE('',(#208),#972,.T.);
#1025=CLOSED_SHELL('',(#973,#974,#975,#976,#977,#978,#979,#980,#981,#982,
#983,#984,#985,#986,#987,#988,#989,#990,#991,#992,#993,#994,#995,#996,#997,
#998,#999,#1000,#1001,#1002,#1003,#1004,#1005,#1006,#1007,#1008,#1009,#1010,
#1011,#1012,#1013,#1014,#1015,#1016,#1017,#1018,#1019,#1020,#1021,#1022,
#1023,#1024));
#1026=DERIVED_UNIT_ELEMENT(#1028,1.);
#1027=DERIVED_UNIT_ELEMENT(#1809,-3.);
#1028=(
MASS_UNIT()
NAMED_UNIT(*)
SI_UNIT(.KILO.,.GRAM.)
);
#1029=DERIVED_UNIT((#1026,#1027));
#1030=MEASURE_REPRESENTATION_ITEM('density measure',
POSITIVE_RATIO_MEASURE(7850.),#1029);
#1031=PROPERTY_DEFINITION_REPRESENTATION(#1036,#1033);
#1032=PROPERTY_DEFINITION_REPRESENTATION(#1037,#1034);
#1033=REPRESENTATION('material name',(#1035),#1804);
#1034=REPRESENTATION('density',(#1030),#1804);
#1035=DESCRIPTIVE_REPRESENTATION_ITEM('Steel','Steel');
#1036=PROPERTY_DEFINITION('material property','material name',#1817);
#1037=PROPERTY_DEFINITION('material property','density of part',#1817);
#1038=AXIS2_PLACEMENT_3D('',#1499,#1167,#1168);
#1039=AXIS2_PLACEMENT_3D('',#1500,#1169,#1170);
#1040=AXIS2_PLACEMENT_3D('',#1509,#1175,#1176);
#1041=AXIS2_PLACEMENT_3D('',#1518,#1181,#1182);
#1042=AXIS2_PLACEMENT_3D('',#1520,#1183,#1184);
#1043=AXIS2_PLACEMENT_3D('',#1522,#1185,#1186);
#1044=AXIS2_PLACEMENT_3D('',#1524,#1188,#1189);
#1045=AXIS2_PLACEMENT_3D('',#1526,#1190,#1191);
#1046=AXIS2_PLACEMENT_3D('',#1528,#1192,#1193);
#1047=AXIS2_PLACEMENT_3D('',#1530,#1195,#1196);
#1048=AXIS2_PLACEMENT_3D('',#1532,#1197,#1198);
#1049=AXIS2_PLACEMENT_3D('',#1534,#1199,#1200);
#1050=AXIS2_PLACEMENT_3D('',#1536,#1202,#1203);
#1051=AXIS2_PLACEMENT_3D('',#1538,#1204,#1205);
#1052=AXIS2_PLACEMENT_3D('',#1540,#1206,#1207);
#1053=AXIS2_PLACEMENT_3D('',#1542,#1209,#1210);
#1054=AXIS2_PLACEMENT_3D('',#1544,#1211,#1212);
#1055=AXIS2_PLACEMENT_3D('',#1546,#1213,#1214);
#1056=AXIS2_PLACEMENT_3D('',#1548,#1216,#1217);
#1057=AXIS2_PLACEMENT_3D('',#1549,#1218,#1219);
#1058=AXIS2_PLACEMENT_3D('',#1550,#1220,#1221);
#1059=AXIS2_PLACEMENT_3D('',#1551,#1222,#1223);
#1060=AXIS2_PLACEMENT_3D('',#1560,#1228,#1229);
#1061=AXIS2_PLACEMENT_3D('',#1569,#1234,#1235);
#1062=AXIS2_PLACEMENT_3D('',#1571,#1236,#1237);
#1063=AXIS2_PLACEMENT_3D('',#1573,#1238,#1239);
#1064=AXIS2_PLACEMENT_3D('',#1575,#1241,#1242);
#1065=AXIS2_PLACEMENT_3D('',#1577,#1243,#1244);
#1066=AXIS2_PLACEMENT_3D('',#1579,#1245,#1246);
#1067=AXIS2_PLACEMENT_3D('',#1581,#1248,#1249);
#1068=AXIS2_PLACEMENT_3D('',#1583,#1250,#1251);
#1069=AXIS2_PLACEMENT_3D('',#1585,#1252,#1253);
#1070=AXIS2_PLACEMENT_3D('',#1587,#1255,#1256);
#1071=AXIS2_PLACEMENT_3D('',#1589,#1257,#1258);
#1072=AXIS2_PLACEMENT_3D('',#1591,#1259,#1260);
#1073=AXIS2_PLACEMENT_3D('',#1593,#1262,#1263);
#1074=AXIS2_PLACEMENT_3D('',#1595,#1264,#1265);
#1075=AXIS2_PLACEMENT_3D('',#1597,#1266,#1267);
#1076=AXIS2_PLACEMENT_3D('',#1599,#1269,#1270);
#1077=AXIS2_PLACEMENT_3D('',#1600,#1271,#1272);
#1078=AXIS2_PLACEMENT_3D('',#1601,#1273,#1274);
#1079=AXIS2_PLACEMENT_3D('',#1602,#1275,#1276);
#1080=AXIS2_PLACEMENT_3D('',#1604,#1277,#1278);
#1081=AXIS2_PLACEMENT_3D('',#1607,#1280,#1281);
#1082=AXIS2_PLACEMENT_3D('',#1608,#1282,#1283);
#1083=AXIS2_PLACEMENT_3D('',#1611,#1284,#1285);
#1084=AXIS2_PLACEMENT_3D('',#1615,#1287,#1288);
#1085=AXIS2_PLACEMENT_3D('',#1617,#1290,#1291);
#1086=AXIS2_PLACEMENT_3D('',#1619,#1292,#1293);
#1087=AXIS2_PLACEMENT_3D('',#1622,#1295,#1296);
#1088=AXIS2_PLACEMENT_3D('',#1623,#1297,#1298);
#1089=AXIS2_PLACEMENT_3D('',#1625,#1299,#1300);
#1090=AXIS2_PLACEMENT_3D('',#1628,#1302,#1303);
#1091=AXIS2_PLACEMENT_3D('',#1629,#1304,#1305);
#1092=AXIS2_PLACEMENT_3D('',#1631,#1306,#1307);
#1093=AXIS2_PLACEMENT_3D('',#1634,#1309,#1310);
#1094=AXIS2_PLACEMENT_3D('',#1635,#1311,#1312);
#1095=AXIS2_PLACEMENT_3D('',#1637,#1313,#1314);
#1096=AXIS2_PLACEMENT_3D('',#1640,#1316,#1317);
#1097=AXIS2_PLACEMENT_3D('',#1641,#1318,#1319);
#1098=AXIS2_PLACEMENT_3D('',#1643,#1320,#1321);
#1099=AXIS2_PLACEMENT_3D('',#1646,#1323,#1324);
#1100=AXIS2_PLACEMENT_3D('',#1647,#1325,#1326);
#1101=AXIS2_PLACEMENT_3D('',#1649,#1327,#1328);
#1102=AXIS2_PLACEMENT_3D('',#1652,#1330,#1331);
#1103=AXIS2_PLACEMENT_3D('',#1653,#1332,#1333);
#1104=AXIS2_PLACEMENT_3D('',#1657,#1335,#1336);
#1105=AXIS2_PLACEMENT_3D('',#1658,#1337,#1338);
#1106=AXIS2_PLACEMENT_3D('',#1659,#1339,#1340);
#1107=AXIS2_PLACEMENT_3D('',#1662,#1341,#1342);
#1108=AXIS2_PLACEMENT_3D('',#1666,#1344,#1345);
#1109=AXIS2_PLACEMENT_3D('',#1668,#1347,#1348);
#1110=AXIS2_PLACEMENT_3D('',#1670,#1349,#1350);
#1111=AXIS2_PLACEMENT_3D('',#1673,#1352,#1353);
#1112=AXIS2_PLACEMENT_3D('',#1674,#1354,#1355);
#1113=AXIS2_PLACEMENT_3D('',#1676,#1356,#1357);
#1114=AXIS2_PLACEMENT_3D('',#1679,#1359,#1360);
#1115=AXIS2_PLACEMENT_3D('',#1680,#1361,#1362);
#1116=AXIS2_PLACEMENT_3D('',#1682,#1363,#1364);
#1117=AXIS2_PLACEMENT_3D('',#1685,#1366,#1367);
#1118=AXIS2_PLACEMENT_3D('',#1686,#1368,#1369);
#1119=AXIS2_PLACEMENT_3D('',#1688,#1370,#1371);
#1120=AXIS2_PLACEMENT_3D('',#1691,#1373,#1374);
#1121=AXIS2_PLACEMENT_3D('',#1692,#1375,#1376);
#1122=AXIS2_PLACEMENT_3D('',#1694,#1377,#1378);
#1123=AXIS2_PLACEMENT_3D('',#1697,#1380,#1381);
#1124=AXIS2_PLACEMENT_3D('',#1698,#1382,#1383);
#1125=AXIS2_PLACEMENT_3D('',#1700,#1384,#1385);
#1126=AXIS2_PLACEMENT_3D('',#1703,#1387,#1388);
#1127=AXIS2_PLACEMENT_3D('',#1704,#1389,#1390);
#1128=AXIS2_PLACEMENT_3D('',#1705,#1391,#1392);
#1129=AXIS2_PLACEMENT_3D('',#1706,#1393,#1394);
#1130=AXIS2_PLACEMENT_3D('',#1707,#1395,#1396);
#1131=AXIS2_PLACEMENT_3D('',#1710,#1397,#1398);
#1132=AXIS2_PLACEMENT_3D('',#1714,#1400,#1401);
#1133=AXIS2_PLACEMENT_3D('',#1716,#1403,#1404);
#1134=AXIS2_PLACEMENT_3D('',#1718,#1405,#1406);
#1135=AXIS2_PLACEMENT_3D('',#1721,#1408,#1409);
#1136=AXIS2_PLACEMENT_3D('',#1722,#1410,#1411);
#1137=AXIS2_PLACEMENT_3D('',#1724,#1412,#1413);
#1138=AXIS2_PLACEMENT_3D('',#1727,#1415,#1416);
#1139=AXIS2_PLACEMENT_3D('',#1728,#1417,#1418);
#1140=AXIS2_PLACEMENT_3D('',#1730,#1419,#1420);
#1141=AXIS2_PLACEMENT_3D('',#1733,#1422,#1423);
#1142=AXIS2_PLACEMENT_3D('',#1734,#1424,#1425);
#1143=AXIS2_PLACEMENT_3D('',#1736,#1426,#1427);
#1144=AXIS2_PLACEMENT_3D('',#1739,#1429,#1430);
#1145=AXIS2_PLACEMENT_3D('',#1740,#1431,#1432);
#1146=AXIS2_PLACEMENT_3D('',#1741,#1433,#1434);
#1147=AXIS2_PLACEMENT_3D('',#1742,#1435,#1436);
#1148=AXIS2_PLACEMENT_3D('',#1743,#1437,#1438);
#1149=AXIS2_PLACEMENT_3D('',#1747,#1440,#1441);
#1150=AXIS2_PLACEMENT_3D('',#1748,#1442,#1443);
#1151=AXIS2_PLACEMENT_3D('',#1749,#1444,#1445);
#1152=AXIS2_PLACEMENT_3D('',#1758,#1450,#1451);
#1153=AXIS2_PLACEMENT_3D('',#1767,#1456,#1457);
#1154=AXIS2_PLACEMENT_3D('',#1770,#1460,#1461);
#1155=AXIS2_PLACEMENT_3D('',#1773,#1464,#1465);
#1156=AXIS2_PLACEMENT_3D('',#1779,#1469,#1470);
#1157=AXIS2_PLACEMENT_3D('',#1788,#1475,#1476);
#1158=AXIS2_PLACEMENT_3D('',#1791,#1479,#1480);
#1159=AXIS2_PLACEMENT_3D('',#1794,#1483,#1484);
#1160=AXIS2_PLACEMENT_3D('',#1795,#1485,#1486);
#1161=AXIS2_PLACEMENT_3D('',#1796,#1487,#1488);
#1162=AXIS2_PLACEMENT_3D('',#1797,#1489,#1490);
#1163=AXIS2_PLACEMENT_3D('',#1798,#1491,#1492);
#1164=AXIS2_PLACEMENT_3D('',#1799,#1493,#1494);
#1165=AXIS2_PLACEMENT_3D('',#1800,#1495,#1496);
#1166=AXIS2_PLACEMENT_3D('',#1801,#1497,#1498);
#1167=DIRECTION('axis',(0.,0.,1.));
#1168=DIRECTION('refdir',(1.,0.,0.));
#1169=DIRECTION('center_axis',(-0.869051174487867,-0.494722200958537,-1.67014069900282E-16));
#1170=DIRECTION('ref_axis',(-0.494722200958537,0.869051174487867,4.58420779260809E-17));
#1171=DIRECTION('',(0.,0.,1.));
#1172=DIRECTION('',(-0.494722200958537,0.869051174487867,4.58420779260809E-17));
#1173=DIRECTION('',(1.22464679914735E-16,1.22464679914735E-16,-1.));
#1174=DIRECTION('',(0.494722200958537,-0.869051174487867,-4.58420779260809E-17));
#1175=DIRECTION('center_axis',(-0.869051174487867,-0.494722200958537,-1.67014069900282E-16));
#1176=DIRECTION('ref_axis',(-0.494722200958537,0.869051174487867,4.58420779260809E-17));
#1177=DIRECTION('',(0.,0.,-1.));
#1178=DIRECTION('',(0.494722200958537,-0.869051174487867,-4.58420779260809E-17));
#1179=DIRECTION('',(1.22464679914735E-16,1.22464679914735E-16,-1.));
#1180=DIRECTION('',(-0.494722200958537,0.869051174487867,4.58420779260809E-17));
#1181=DIRECTION('center_axis',(1.22464679914735E-16,1.22464679914735E-16,
-1.));
#1182=DIRECTION('ref_axis',(-0.623645089370977,0.781707619576185,1.9357077168094E-17));
#1183=DIRECTION('center_axis',(-1.22464679914735E-16,-1.22464679914735E-16,
1.));
#1184=DIRECTION('ref_axis',(-0.623645089370977,0.781707619576185,1.9357077168094E-17));
#1185=DIRECTION('center_axis',(-1.22464679914735E-16,-1.22464679914735E-16,
1.));
#1186=DIRECTION('ref_axis',(-0.623645089370977,0.781707619576185,1.9357077168094E-17));
#1187=DIRECTION('',(1.22464679914735E-16,1.22464679914735E-16,-1.));
#1188=DIRECTION('center_axis',(1.22464679914735E-16,1.22464679914735E-16,
-1.));
#1189=DIRECTION('ref_axis',(0.60025715428169,-0.799807069694715,-2.44378165180687E-17));
#1190=DIRECTION('center_axis',(-1.22464679914735E-16,-1.22464679914735E-16,
1.));
#1191=DIRECTION('ref_axis',(0.60025715428169,-0.799807069694715,-2.44378165180687E-17));
#1192=DIRECTION('center_axis',(1.22464679914735E-16,1.22464679914735E-16,
-1.));
#1193=DIRECTION('ref_axis',(0.60025715428169,-0.799807069694715,-2.44378165180687E-17));
#1194=DIRECTION('',(1.22464679914735E-16,1.22464679914735E-16,-1.));
#1195=DIRECTION('center_axis',(1.22464679914735E-16,1.22464679914735E-16,
-1.));
#1196=DIRECTION('ref_axis',(0.997610515679975,-0.0690887762573203,1.13711117612269E-16));
#1197=DIRECTION('center_axis',(-1.22464679914735E-16,-1.22464679914735E-16,
1.));
#1198=DIRECTION('ref_axis',(0.997610515679975,-0.0690887762573203,1.13711117612269E-16));
#1199=DIRECTION('center_axis',(1.22464679914735E-16,1.22464679914735E-16,
-1.));
#1200=DIRECTION('ref_axis',(0.997610515679975,-0.0690887762573203,1.13711117612269E-16));
#1201=DIRECTION('',(1.22464679914735E-16,1.22464679914735E-16,-1.));
#1202=DIRECTION('center_axis',(1.22464679914735E-16,1.22464679914735E-16,
-1.));
#1203=DIRECTION('ref_axis',(0.847418241375261,-0.530925912142608,3.87591317949458E-17));
#1204=DIRECTION('center_axis',(-1.22464679914735E-16,-1.22464679914735E-16,
1.));
#1205=DIRECTION('ref_axis',(0.847418241375261,-0.530925912142608,3.87591317949458E-17));
#1206=DIRECTION('center_axis',(-1.22464679914735E-16,-1.22464679914735E-16,
1.));
#1207=DIRECTION('ref_axis',(0.847418241375261,-0.530925912142608,3.87591317949458E-17));
#1208=DIRECTION('',(1.22464679914735E-16,1.22464679914735E-16,-1.));
#1209=DIRECTION('center_axis',(1.22464679914735E-16,1.22464679914735E-16,
-1.));
#1210=DIRECTION('ref_axis',(0.54899249699887,-0.835827277754768,-3.51271296136844E-17));
#1211=DIRECTION('center_axis',(-1.22464679914735E-16,-1.22464679914735E-16,
1.));
#1212=DIRECTION('ref_axis',(0.54899249699887,-0.835827277754768,-3.51271296136844E-17));
#1213=DIRECTION('center_axis',(-1.22464679914735E-16,-1.22464679914735E-16,
1.));
#1214=DIRECTION('ref_axis',(0.54899249699887,-0.835827277754768,-3.51271296136844E-17));
#1215=DIRECTION('',(1.22464679914735E-16,1.22464679914735E-16,-1.));
#1216=DIRECTION('center_axis',(1.22464679914735E-16,1.22464679914735E-16,
-1.));
#1217=DIRECTION('ref_axis',(-0.5983192089473,0.801257838778927,2.48528143446652E-17));
#1218=DIRECTION('center_axis',(-1.22464679914735E-16,-1.22464679914735E-16,
1.));
#1219=DIRECTION('ref_axis',(-0.5983192089473,0.801257838778927,2.48528143446652E-17));
#1220=DIRECTION('center_axis',(1.22464679914735E-16,1.22464679914735E-16,
-1.));
#1221=DIRECTION('ref_axis',(-0.5983192089473,0.801257838778927,2.48528143446652E-17));
#1222=DIRECTION('center_axis',(0.869051174487867,-0.494722200958537,6.05859959871006E-17));
#1223=DIRECTION('ref_axis',(0.494722200958537,0.869051174487867,-1.06428073913181E-16));
#1224=DIRECTION('',(0.,0.,-1.));
#1225=DIRECTION('',(0.494722200958537,0.869051174487867,-1.06428073913181E-16));
#1226=DIRECTION('',(-2.33993213739628E-32,1.22464679914735E-16,1.));
#1227=DIRECTION('',(-0.494722200958537,-0.869051174487867,1.06428073913181E-16));
#1228=DIRECTION('center_axis',(0.869051174487867,-0.494722200958537,6.05859959871006E-17));
#1229=DIRECTION('ref_axis',(0.494722200958537,0.869051174487867,-1.06428073913181E-16));
#1230=DIRECTION('',(0.,0.,1.));
#1231=DIRECTION('',(-0.494722200958537,-0.869051174487867,1.06428073913181E-16));
#1232=DIRECTION('',(-2.33993213739628E-32,1.22464679914735E-16,1.));
#1233=DIRECTION('',(0.494722200958537,0.869051174487867,-1.06428073913181E-16));
#1234=DIRECTION('center_axis',(-2.33993213739628E-32,1.22464679914735E-16,
1.));
#1235=DIRECTION('ref_axis',(0.623645089370977,0.781707619576185,-9.57315734183072E-17));
#1236=DIRECTION('center_axis',(2.33993213739628E-32,-1.22464679914735E-16,
-1.));
#1237=DIRECTION('ref_axis',(0.623645089370977,0.781707619576185,-9.57315734183072E-17));
#1238=DIRECTION('center_axis',(2.33993213739628E-32,-1.22464679914735E-16,
-1.));
#1239=DIRECTION('ref_axis',(0.623645089370977,0.781707619576185,-9.57315734183072E-17));
#1240=DIRECTION('',(-2.33993213739628E-32,1.22464679914735E-16,1.));
#1241=DIRECTION('center_axis',(-2.33993213739628E-32,1.22464679914735E-16,
1.));
#1242=DIRECTION('ref_axis',(-0.60025715428169,-0.799807069694715,9.79481167837058E-17));
#1243=DIRECTION('center_axis',(2.33993213739628E-32,-1.22464679914735E-16,
-1.));
#1244=DIRECTION('ref_axis',(-0.60025715428169,-0.799807069694715,9.79481167837058E-17));
#1245=DIRECTION('center_axis',(-2.33993213739628E-32,1.22464679914735E-16,
1.));
#1246=DIRECTION('ref_axis',(-0.60025715428169,-0.799807069694715,9.79481167837058E-17));
#1247=DIRECTION('',(-2.33993213739628E-32,1.22464679914735E-16,1.));
#1248=DIRECTION('center_axis',(-2.33993213739628E-32,1.22464679914735E-16,
1.));
#1249=DIRECTION('ref_axis',(-0.997610515679975,-0.0690887762573203,8.46093487005349E-18));
#1250=DIRECTION('center_axis',(2.33993213739628E-32,-1.22464679914735E-16,
-1.));
#1251=DIRECTION('ref_axis',(-0.997610515679975,-0.0690887762573203,8.46093487005349E-18));
#1252=DIRECTION('center_axis',(-2.33993213739628E-32,1.22464679914735E-16,
1.));
#1253=DIRECTION('ref_axis',(-0.997610515679975,-0.0690887762573203,8.46093487005349E-18));
#1254=DIRECTION('',(-2.33993213739628E-32,1.22464679914735E-16,1.));
#1255=DIRECTION('center_axis',(-2.33993213739628E-32,1.22464679914735E-16,
1.));
#1256=DIRECTION('ref_axis',(-0.847418241375261,-0.530925912142608,6.50196718889834E-17));
#1257=DIRECTION('center_axis',(2.33993213739628E-32,-1.22464679914735E-16,
-1.));
#1258=DIRECTION('ref_axis',(-0.847418241375261,-0.530925912142608,6.50196718889834E-17));
#1259=DIRECTION('center_axis',(2.33993213739628E-32,-1.22464679914735E-16,
-1.));
#1260=DIRECTION('ref_axis',(-0.847418241375261,-0.530925912142608,6.50196718889834E-17));
#1261=DIRECTION('',(-2.33993213739628E-32,1.22464679914735E-16,1.));
#1262=DIRECTION('center_axis',(-2.33993213739628E-32,1.22464679914735E-16,
1.));
#1263=DIRECTION('ref_axis',(-0.54899249699887,-0.835827277754768,1.02359320034242E-16));
#1264=DIRECTION('center_axis',(2.33993213739628E-32,-1.22464679914735E-16,
-1.));
#1265=DIRECTION('ref_axis',(-0.54899249699887,-0.835827277754768,1.02359320034242E-16));
#1266=DIRECTION('center_axis',(2.33993213739628E-32,-1.22464679914735E-16,
-1.));
#1267=DIRECTION('ref_axis',(-0.54899249699887,-0.835827277754768,1.02359320034242E-16));
#1268=DIRECTION('',(-2.33993213739628E-32,1.22464679914735E-16,1.));
#1269=DIRECTION('center_axis',(-2.33993213739628E-32,1.22464679914735E-16,
1.));
#1270=DIRECTION('ref_axis',(0.5983192089473,0.801257838778927,-9.81257847552339E-17));
#1271=DIRECTION('center_axis',(2.33993213739628E-32,-1.22464679914735E-16,
-1.));
#1272=DIRECTION('ref_axis',(0.5983192089473,0.801257838778927,-9.81257847552339E-17));
#1273=DIRECTION('center_axis',(-2.33993213739628E-32,1.22464679914735E-16,
1.));
#1274=DIRECTION('ref_axis',(0.5983192089473,0.801257838778927,-9.81257847552339E-17));
#1275=DIRECTION('center_axis',(0.,0.,1.));
#1276=DIRECTION('ref_axis',(0.617196321179562,0.786809189780098,0.));
#1277=DIRECTION('center_axis',(0.,0.,1.));
#1278=DIRECTION('ref_axis',(0.617196321179562,0.786809189780098,0.));
#1279=DIRECTION('',(0.,0.,1.));
#1280=DIRECTION('center_axis',(0.,0.,1.));
#1281=DIRECTION('ref_axis',(0.617196321179562,0.786809189780098,0.));
#1282=DIRECTION('center_axis',(0.,0.,1.));
#1283=DIRECTION('ref_axis',(-0.95497414609398,0.29668902961194,0.));
#1284=DIRECTION('center_axis',(0.,0.,-1.));
#1285=DIRECTION('ref_axis',(-0.95497414609398,0.29668902961194,0.));
#1286=DIRECTION('',(0.,0.,1.));
#1287=DIRECTION('center_axis',(0.,0.,-1.));
#1288=DIRECTION('ref_axis',(-0.95497414609398,0.29668902961194,0.));
#1289=DIRECTION('',(0.,0.,1.));
#1290=DIRECTION('center_axis',(0.,0.,1.));
#1291=DIRECTION('ref_axis',(-0.221155659484576,0.975238521736064,0.));
#1292=DIRECTION('center_axis',(0.,0.,-1.));
#1293=DIRECTION('ref_axis',(-0.221155659484576,0.975238521736064,0.));
#1294=DIRECTION('',(0.,0.,1.));
#1295=DIRECTION('center_axis',(0.,0.,-1.));
#1296=DIRECTION('ref_axis',(-0.221155659484576,0.975238521736064,0.));
#1297=DIRECTION('center_axis',(0.,0.,1.));
#1298=DIRECTION('ref_axis',(-0.229899478750504,0.973214380118916,0.));
#1299=DIRECTION('center_axis',(0.,0.,1.));
#1300=DIRECTION('ref_axis',(-0.229899478750504,0.973214380118916,0.));
#1301=DIRECTION('',(0.,0.,1.));
#1302=DIRECTION('center_axis',(0.,0.,1.));
#1303=DIRECTION('ref_axis',(-0.229899478750504,0.973214380118916,0.));
#1304=DIRECTION('center_axis',(0.,0.,1.));
#1305=DIRECTION('ref_axis',(-0.953959784736135,0.299934541368924,0.));
#1306=DIRECTION('center_axis',(0.,0.,1.));
#1307=DIRECTION('ref_axis',(-0.953959784736135,0.299934541368924,0.));
#1308=DIRECTION('',(0.,0.,1.));
#1309=DIRECTION('center_axis',(0.,0.,1.));
#1310=DIRECTION('ref_axis',(-0.953959784736135,0.299934541368924,0.));
#1311=DIRECTION('center_axis',(0.,0.,1.));
#1312=DIRECTION('ref_axis',(-0.872919333390232,-0.487864568700733,0.));
#1313=DIRECTION('center_axis',(0.,0.,1.));
#1314=DIRECTION('ref_axis',(-0.872919333390232,-0.487864568700733,0.));
#1315=DIRECTION('',(0.,0.,1.));
#1316=DIRECTION('center_axis',(0.,0.,1.));
#1317=DIRECTION('ref_axis',(-0.872919333390232,-0.487864568700733,0.));
#1318=DIRECTION('center_axis',(0.,0.,1.));
#1319=DIRECTION('ref_axis',(0.169616604657049,-0.985510125480512,0.));
#1320=DIRECTION('center_axis',(0.,0.,1.));
#1321=DIRECTION('ref_axis',(0.169616604657049,-0.985510125480512,0.));
#1322=DIRECTION('',(0.,0.,1.));
#1323=DIRECTION('center_axis',(0.,0.,1.));
#1324=DIRECTION('ref_axis',(0.169616604657049,-0.985510125480512,0.));
#1325=DIRECTION('center_axis',(0.,0.,1.));
#1326=DIRECTION('ref_axis',(-0.0628386164384725,-0.998023701263702,0.));
#1327=DIRECTION('center_axis',(0.,0.,-1.));
#1328=DIRECTION('ref_axis',(-0.0628386164384725,-0.998023701263702,0.));
#1329=DIRECTION('',(0.,0.,1.));
#1330=DIRECTION('center_axis',(0.,0.,-1.));
#1331=DIRECTION('ref_axis',(-0.0628386164384725,-0.998023701263702,0.));
#1332=DIRECTION('center_axis',(0.,0.,1.));
#1333=DIRECTION('ref_axis',(-0.863427683353514,0.504472631189031,0.));
#1334=DIRECTION('',(0.,0.,1.));
#1335=DIRECTION('center_axis',(0.,0.,-1.));
#1336=DIRECTION('ref_axis',(-0.863427683353514,0.504472631189031,0.));
#1337=DIRECTION('center_axis',(0.,0.,-1.));
#1338=DIRECTION('ref_axis',(-0.863427683353514,0.504472631189031,0.));
#1339=DIRECTION('center_axis',(0.,0.,1.));
#1340=DIRECTION('ref_axis',(-0.741775702844667,-0.670648049776707,0.));
#1341=DIRECTION('center_axis',(0.,0.,-1.));
#1342=DIRECTION('ref_axis',(-0.741775702844667,-0.670648049776707,0.));
#1343=DIRECTION('',(0.,0.,1.));
#1344=DIRECTION('center_axis',(0.,0.,-1.));
#1345=DIRECTION('ref_axis',(-0.741775702844667,-0.670648049776707,0.));
#1346=DIRECTION('',(0.,0.,1.));
#1347=DIRECTION('center_axis',(0.,0.,1.));
#1348=DIRECTION('ref_axis',(-0.387746404901478,-0.921766090440508,0.));
#1349=DIRECTION('center_axis',(0.,0.,1.));
#1350=DIRECTION('ref_axis',(-0.387746404901478,-0.921766090440508,0.));
#1351=DIRECTION('',(0.,0.,1.));
#1352=DIRECTION('center_axis',(0.,0.,1.));
#1353=DIRECTION('ref_axis',(-0.387746404901478,-0.921766090440508,0.));
#1354=DIRECTION('center_axis',(0.,0.,1.));
#1355=DIRECTION('ref_axis',(-0.412481490814625,-0.910965981656475,0.));
#1356=DIRECTION('center_axis',(0.,0.,1.));
#1357=DIRECTION('ref_axis',(-0.412481490814625,-0.910965981656475,0.));
#1358=DIRECTION('',(0.,0.,1.));
#1359=DIRECTION('center_axis',(0.,0.,1.));
#1360=DIRECTION('ref_axis',(-0.412481490814625,-0.910965981656475,0.));
#1361=DIRECTION('center_axis',(0.,0.,1.));
#1362=DIRECTION('ref_axis',(0.924172173886357,-0.381976168123307,0.));
#1363=DIRECTION('center_axis',(0.,0.,1.));
#1364=DIRECTION('ref_axis',(0.924172173886357,-0.381976168123307,0.));
#1365=DIRECTION('',(0.,0.,1.));
#1366=DIRECTION('center_axis',(0.,0.,1.));
#1367=DIRECTION('ref_axis',(0.924172173886357,-0.381976168123307,0.));
#1368=DIRECTION('center_axis',(0.,0.,1.));
#1369=DIRECTION('ref_axis',(0.912483164896794,0.409114255165876,0.));
#1370=DIRECTION('center_axis',(0.,0.,1.));
#1371=DIRECTION('ref_axis',(0.912483164896794,0.409114255165876,0.));
#1372=DIRECTION('',(0.,0.,1.));
#1373=DIRECTION('center_axis',(0.,0.,1.));
#1374=DIRECTION('ref_axis',(0.912483164896794,0.409114255165876,0.));
#1375=DIRECTION('center_axis',(0.,0.,1.));
#1376=DIRECTION('ref_axis',(0.891972152033279,0.452090344950123,0.));
#1377=DIRECTION('center_axis',(0.,0.,-1.));
#1378=DIRECTION('ref_axis',(0.891972152033279,0.452090344950123,0.));
#1379=DIRECTION('',(0.,0.,1.));
#1380=DIRECTION('center_axis',(0.,0.,-1.));
#1381=DIRECTION('ref_axis',(0.891972152033279,0.452090344950123,0.));
#1382=DIRECTION('center_axis',(0.,0.,1.));
#1383=DIRECTION('ref_axis',(0.216946007281405,-0.976183604617828,0.));
#1384=DIRECTION('center_axis',(0.,0.,-1.));
#1385=DIRECTION('ref_axis',(0.216946007281405,-0.976183604617828,0.));
#1386=DIRECTION('',(0.,0.,1.));
#1387=DIRECTION('center_axis',(0.,0.,-1.));
#1388=DIRECTION('ref_axis',(0.216946007281405,-0.976183604617828,0.));
#1389=DIRECTION('center_axis',(0.,0.,1.));
#1390=DIRECTION('ref_axis',(0.393403557525821,-0.919365890669231,0.));
#1391=DIRECTION('center_axis',(0.,0.,1.));
#1392=DIRECTION('ref_axis',(0.393403557525821,-0.919365890669231,0.));
#1393=DIRECTION('center_axis',(0.,0.,1.));
#1394=DIRECTION('ref_axis',(0.393403557525821,-0.919365890669231,0.));
#1395=DIRECTION('center_axis',(0.,0.,1.));
#1396=DIRECTION('ref_axis',(-0.391451174200978,0.920198879708444,0.));
#1397=DIRECTION('center_axis',(0.,0.,-1.));
#1398=DIRECTION('ref_axis',(-0.391451174200978,0.920198879708444,0.));
#1399=DIRECTION('',(0.,0.,1.));
#1400=DIRECTION('center_axis',(0.,0.,-1.));
#1401=DIRECTION('ref_axis',(-0.391451174200978,0.920198879708444,0.));
#1402=DIRECTION('',(0.,0.,1.));
#1403=DIRECTION('center_axis',(0.,0.,1.));
#1404=DIRECTION('ref_axis',(0.321524463248999,0.946901272325918,0.));
#1405=DIRECTION('center_axis',(0.,0.,-1.));
#1406=DIRECTION('ref_axis',(0.321524463248999,0.946901272325918,0.));
#1407=DIRECTION('',(0.,0.,1.));
#1408=DIRECTION('center_axis',(0.,0.,-1.));
#1409=DIRECTION('ref_axis',(0.321524463248999,0.946901272325918,0.));
#1410=DIRECTION('center_axis',(0.,0.,1.));
#1411=DIRECTION('ref_axis',(0.305713436088539,0.952123571284179,0.));
#1412=DIRECTION('center_axis',(0.,0.,1.));
#1413=DIRECTION('ref_axis',(0.305713436088539,0.952123571284179,0.));
#1414=DIRECTION('',(0.,0.,1.));
#1415=DIRECTION('center_axis',(0.,0.,1.));
#1416=DIRECTION('ref_axis',(0.305713436088539,0.952123571284179,0.));
#1417=DIRECTION('center_axis',(0.,0.,1.));
#1418=DIRECTION('ref_axis',(0.159807633146301,0.987148175497568,0.));
#1419=DIRECTION('center_axis',(0.,0.,1.));
#1420=DIRECTION('ref_axis',(0.159807633146301,0.987148175497568,0.));
#1421=DIRECTION('',(0.,0.,1.));
#1422=DIRECTION('center_axis',(0.,0.,1.));
#1423=DIRECTION('ref_axis',(0.159807633146301,0.987148175497568,0.));
#1424=DIRECTION('center_axis',(0.,0.,1.));
#1425=DIRECTION('ref_axis',(0.391451174200978,0.920198879708444,0.));
#1426=DIRECTION('center_axis',(0.,0.,-1.));
#1427=DIRECTION('ref_axis',(0.391451174200978,0.920198879708444,0.));
#1428=DIRECTION('',(0.,0.,1.));
#1429=DIRECTION('center_axis',(0.,0.,-1.));
#1430=DIRECTION('ref_axis',(0.391451174200978,0.920198879708444,0.));
#1431=DIRECTION('center_axis',(0.,0.,1.));
#1432=DIRECTION('ref_axis',(0.593660351841717,0.804715717909852,0.));
#1433=DIRECTION('center_axis',(0.,0.,-1.));
#1434=DIRECTION('ref_axis',(0.593660351841717,0.804715717909852,0.));
#1435=DIRECTION('center_axis',(0.,0.,-1.));
#1436=DIRECTION('ref_axis',(0.593660351841717,0.804715717909852,0.));
#1437=DIRECTION('center_axis',(0.,0.,1.));
#1438=DIRECTION('ref_axis',(0.0775628468708005,-0.996987464708206,0.));
#1439=DIRECTION('',(0.,0.,-1.));
#1440=DIRECTION('center_axis',(0.,0.,-1.));
#1441=DIRECTION('ref_axis',(0.0775628468708005,-0.996987464708206,0.));
#1442=DIRECTION('center_axis',(0.,0.,-1.));
#1443=DIRECTION('ref_axis',(0.0775628468708005,-0.996987464708206,0.));
#1444=DIRECTION('center_axis',(0.,1.,0.));
#1445=DIRECTION('ref_axis',(1.,0.,0.));
#1446=DIRECTION('',(0.,0.,-1.));
#1447=DIRECTION('',(-1.,0.,0.));
#1448=DIRECTION('',(0.,0.,1.));
#1449=DIRECTION('',(1.,0.,0.));
#1450=DIRECTION('center_axis',(0.,-1.,0.));
#1451=DIRECTION('ref_axis',(0.,0.,-1.));
#1452=DIRECTION('',(-1.,0.,0.));
#1453=DIRECTION('',(0.,0.,-1.));
#1454=DIRECTION('',(1.,0.,0.));
#1455=DIRECTION('',(0.,0.,1.));
#1456=DIRECTION('center_axis',(-1.,0.,0.));
#1457=DIRECTION('ref_axis',(0.,0.,-1.));
#1458=DIRECTION('',(0.,-1.,0.));
#1459=DIRECTION('',(0.,-1.,0.));
#1460=DIRECTION('center_axis',(1.,0.,0.));
#1461=DIRECTION('ref_axis',(0.,0.,1.));
#1462=DIRECTION('',(0.,-1.,0.));
#1463=DIRECTION('',(0.,-1.,0.));
#1464=DIRECTION('center_axis',(0.,1.,0.));
#1465=DIRECTION('ref_axis',(1.,0.,0.));
#1466=DIRECTION('',(0.,0.,1.));
#1467=DIRECTION('',(1.,0.,0.));
#1468=DIRECTION('',(-1.,0.,0.));
#1469=DIRECTION('center_axis',(0.,-1.,0.));
#1470=DIRECTION('ref_axis',(0.,0.,-1.));
#1471=DIRECTION('',(0.,0.,-1.));
#1472=DIRECTION('',(1.,0.,0.));
#1473=DIRECTION('',(0.,0.,1.));
#1474=DIRECTION('',(-1.,0.,0.));
#1475=DIRECTION('center_axis',(-1.,0.,0.));
#1476=DIRECTION('ref_axis',(0.,0.,-1.));
#1477=DIRECTION('',(0.,-1.,0.));
#1478=DIRECTION('',(0.,-1.,0.));
#1479=DIRECTION('center_axis',(1.,0.,0.));
#1480=DIRECTION('ref_axis',(0.,0.,1.));
#1481=DIRECTION('',(0.,-1.,0.));
#1482=DIRECTION('',(0.,-1.,0.));
#1483=DIRECTION('center_axis',(0.,0.,1.));
#1484=DIRECTION('ref_axis',(-0.619099233666891,-0.785312765000715,0.));
#1485=DIRECTION('center_axis',(0.,0.,1.));
#1486=DIRECTION('ref_axis',(-0.619099233666891,-0.785312765000715,0.));
#1487=DIRECTION('center_axis',(0.,0.,1.));
#1488=DIRECTION('ref_axis',(-0.619099233666891,-0.785312765000715,0.));
#1489=DIRECTION('center_axis',(0.,0.,1.));
#1490=DIRECTION('ref_axis',(1.,0.,0.));
#1491=DIRECTION('center_axis',(0.,0.,1.));
#1492=DIRECTION('ref_axis',(0.0838181115944002,0.996481070652498,0.));
#1493=DIRECTION('center_axis',(0.,0.,1.));
#1494=DIRECTION('ref_axis',(0.0838181115944002,0.996481070652498,0.));
#1495=DIRECTION('center_axis',(0.,0.,1.));
#1496=DIRECTION('ref_axis',(0.0838181115944002,0.996481070652498,0.));
#1497=DIRECTION('center_axis',(0.,0.,1.));
#1498=DIRECTION('ref_axis',(1.,0.,0.));
#1499=CARTESIAN_POINT('',(0.,0.,0.));
#1500=CARTESIAN_POINT('Origin',(1.2468895157024,0.577126104035674,0.5));
#1501=CARTESIAN_POINT('',(1.24664634064404,0.577553276233854,0.));
#1502=CARTESIAN_POINT('',(1.24664634064404,0.577553276233855,0.499999999999999));
#1503=CARTESIAN_POINT('',(1.24664634064404,0.577553276233854,0.));
#1504=CARTESIAN_POINT('',(1.2468895157024,0.577126104035674,-6.99353086378051E-16));
#1505=CARTESIAN_POINT('',(1.16617978387259,0.718904433577786,-6.11933950580795E-16));
#1506=CARTESIAN_POINT('',(1.2468895157024,0.577126104035674,0.5));
#1507=CARTESIAN_POINT('',(1.2468895157024,0.577126104035674,0.5));
#1508=CARTESIAN_POINT('',(1.16617978387259,0.718904433577786,0.499999999999999));
#1509=CARTESIAN_POINT('Origin',(1.2468895157024,0.577126104035674,0.5));
#1510=CARTESIAN_POINT('',(1.16650950088118,0.718325237914018,0.499999999999999));
#1511=CARTESIAN_POINT('',(1.16650950088118,0.718325237914018,0.));
#1512=CARTESIAN_POINT('',(1.16650950088118,0.718325237914018,0.));
#1513=CARTESIAN_POINT('',(1.16617978387259,0.718904433577786,0.499999999999999));
#1514=CARTESIAN_POINT('',(1.16617978387259,0.718904433577786,0.499999999999999));
#1515=CARTESIAN_POINT('',(1.16617978387259,0.718904433577786,-6.11933950580795E-16));
#1516=CARTESIAN_POINT('',(1.16617978387259,0.718904433577786,0.499999999999999));
#1517=CARTESIAN_POINT('',(1.16617978387259,0.718904433577786,-6.11933950580795E-16));
#1518=CARTESIAN_POINT('Origin',(2.41764773994163,-0.830073623133582,0.5));
#1519=CARTESIAN_POINT('',(1.27603889084674,0.600875407208615,0.5));
#1520=CARTESIAN_POINT('Origin',(2.41764773994163,-0.830073623133582,0.5));
#1521=CARTESIAN_POINT('',(1.27603889084674,0.600875407208615,-6.99353086378051E-16));
#1522=CARTESIAN_POINT('Origin',(2.41764773994163,-0.830073623133582,-6.99353086378051E-16));
#1523=CARTESIAN_POINT('',(1.27603889084674,0.600875407208615,0.5));
#1524=CARTESIAN_POINT('Origin',(0.684196176447242,1.38947073464038,0.5));
#1525=CARTESIAN_POINT('',(1.65461984074065,1.21500497635435,0.5));
#1526=CARTESIAN_POINT('Origin',(0.684196176447242,1.38947073464038,0.5));
#1527=CARTESIAN_POINT('',(1.65461984074066,1.21500497635435,-5.24514814783538E-16));
#1528=CARTESIAN_POINT('Origin',(0.684196176447242,1.38947073464038,-6.99353086378051E-16));
#1529=CARTESIAN_POINT('',(1.65461984074065,1.21500497635435,0.5));
#1530=CARTESIAN_POINT('Origin',(1.59833397883142,1.21890301196922,0.5));
#1531=CARTESIAN_POINT('',(1.54763997473667,1.2436701450565,0.5));
#1532=CARTESIAN_POINT('Origin',(1.59833397883142,1.21890301196922,0.5));
#1533=CARTESIAN_POINT('',(1.54763997473667,1.2436701450565,-5.24514814783538E-16));
#1534=CARTESIAN_POINT('Origin',(1.59833397883142,1.21890301196922,-5.24514814783538E-16));
#1535=CARTESIAN_POINT('',(1.54763997473667,1.2436701450565,0.5));
#1536=CARTESIAN_POINT('Origin',(0.685811627937623,1.41835866818146,0.5));
#1537=CARTESIAN_POINT('',(1.4309925961217,0.951486625632112,0.5));
#1538=CARTESIAN_POINT('Origin',(0.685811627937623,1.41835866818146,0.5));
#1539=CARTESIAN_POINT('',(1.4309925961217,0.951486625632112,-5.24514814783538E-16));
#1540=CARTESIAN_POINT('Origin',(0.685811627937623,1.41835866818146,-6.99353086378051E-16));
#1541=CARTESIAN_POINT('',(1.4309925961217,0.951486625632112,0.5));
#1542=CARTESIAN_POINT('Origin',(0.673803781302766,1.57035443182079,0.5));
#1543=CARTESIAN_POINT('',(1.21067585345183,0.752980196252983,0.5));
#1544=CARTESIAN_POINT('Origin',(0.673803781302766,1.57035443182079,0.5));
#1545=CARTESIAN_POINT('',(1.21067585345183,0.752980196252983,-6.99353086378051E-16));
#1546=CARTESIAN_POINT('Origin',(0.673803781302766,1.57035443182079,-6.99353086378051E-16));
#1547=CARTESIAN_POINT('',(1.21067585345183,0.752980196252983,0.5));
#1548=CARTESIAN_POINT('Origin',(2.59129832020988,-1.09592346142922,0.5));
#1549=CARTESIAN_POINT('Origin',(2.59129832020988,-1.09592346142922,0.5));
#1550=CARTESIAN_POINT('Origin',(2.59129832020988,-1.09592346142922,-6.11933950580795E-16));
#1551=CARTESIAN_POINT('Origin',(-1.24738020156915,0.577126104035674,-8.74191357972564E-17));
#1552=CARTESIAN_POINT('',(-1.24698690001364,0.577816995162211,0.5));
#1553=CARTESIAN_POINT('',(-1.24698690001364,0.577816995162211,0.));
#1554=CARTESIAN_POINT('',(-1.24698690001364,0.577816995162211,0.));
#1555=CARTESIAN_POINT('',(-1.24738020156915,0.577126104035674,0.5));
#1556=CARTESIAN_POINT('',(-1.16667046973934,0.718904433577786,0.5));
#1557=CARTESIAN_POINT('',(-1.24738020156915,0.577126104035674,-8.74191357972564E-17));
#1558=CARTESIAN_POINT('',(-1.24738020156915,0.577126104035674,-8.74191357972564E-17));
#1559=CARTESIAN_POINT('',(-1.16667046973934,0.718904433577786,-8.74191357972564E-17));
#1560=CARTESIAN_POINT('Origin',(-1.24738020156915,0.577126104035674,-8.74191357972564E-17));
#1561=CARTESIAN_POINT('',(-1.16685501039779,0.718580261192442,0.));
#1562=CARTESIAN_POINT('',(-1.16685501039779,0.718580261192443,0.5));
#1563=CARTESIAN_POINT('',(-1.16685501039779,0.718580261192442,0.));
#1564=CARTESIAN_POINT('',(-1.16667046973934,0.718904433577786,-8.74191357972564E-17));
#1565=CARTESIAN_POINT('',(-1.16667046973934,0.718904433577786,-8.74191357972564E-17));
#1566=CARTESIAN_POINT('',(-1.16667046973934,0.718904433577786,0.5));
#1567=CARTESIAN_POINT('',(-1.16667046973934,0.718904433577786,-8.74191357972564E-17));
#1568=CARTESIAN_POINT('',(-1.16667046973934,0.718904433577786,0.5));
#1569=CARTESIAN_POINT('Origin',(-2.41813842580838,-0.830073623133582,0.));
#1570=CARTESIAN_POINT('',(-1.27652957671349,0.600875407208615,-8.74191357972564E-17));
#1571=CARTESIAN_POINT('Origin',(-2.41813842580838,-0.830073623133582,0.));
#1572=CARTESIAN_POINT('',(-1.27652957671349,0.600875407208615,0.5));
#1573=CARTESIAN_POINT('Origin',(-2.41813842580838,-0.830073623133582,0.5));
#1574=CARTESIAN_POINT('',(-1.27652957671349,0.600875407208615,-8.74191357972564E-17));
#1575=CARTESIAN_POINT('Origin',(-0.684686862313994,1.38947073464038,-1.74838271594513E-16));
#1576=CARTESIAN_POINT('',(-1.65511052660741,1.21500497635435,-1.74838271594513E-16));
#1577=CARTESIAN_POINT('Origin',(-0.684686862313994,1.38947073464038,-1.74838271594513E-16));
#1578=CARTESIAN_POINT('',(-1.65511052660741,1.21500497635435,0.5));
#1579=CARTESIAN_POINT('Origin',(-0.684686862313995,1.38947073464038,0.5));
#1580=CARTESIAN_POINT('',(-1.65511052660741,1.21500497635435,-1.74838271594513E-16));
#1581=CARTESIAN_POINT('Origin',(-1.59882466469817,1.21890301196922,-1.74838271594513E-16));
#1582=CARTESIAN_POINT('',(-1.54813066060342,1.2436701450565,-1.74838271594513E-16));
#1583=CARTESIAN_POINT('Origin',(-1.59882466469817,1.21890301196922,-1.74838271594513E-16));
#1584=CARTESIAN_POINT('',(-1.54813066060342,1.2436701450565,0.5));
#1585=CARTESIAN_POINT('Origin',(-1.59882466469817,1.21890301196922,0.5));
#1586=CARTESIAN_POINT('',(-1.54813066060342,1.2436701450565,-1.74838271594513E-16));
#1587=CARTESIAN_POINT('Origin',(-0.686302313804375,1.41835866818146,-1.74838271594513E-16));
#1588=CARTESIAN_POINT('',(-1.43148328198845,0.951486625632112,-2.62257407391769E-16));
#1589=CARTESIAN_POINT('Origin',(-0.686302313804375,1.41835866818146,-1.74838271594513E-16));
#1590=CARTESIAN_POINT('',(-1.43148328198845,0.951486625632112,0.5));
#1591=CARTESIAN_POINT('Origin',(-0.686302313804375,1.41835866818146,0.5));
#1592=CARTESIAN_POINT('',(-1.43148328198845,0.951486625632112,-2.62257407391769E-16));
#1593=CARTESIAN_POINT('Origin',(-0.674294467169519,1.57035443182079,-2.62257407391769E-16));
#1594=CARTESIAN_POINT('',(-1.21116653931858,0.752980196252983,-1.74838271594513E-16));
#1595=CARTESIAN_POINT('Origin',(-0.674294467169519,1.57035443182079,-2.62257407391769E-16));
#1596=CARTESIAN_POINT('',(-1.21116653931858,0.752980196252983,0.5));
#1597=CARTESIAN_POINT('Origin',(-0.674294467169519,1.57035443182079,0.5));
#1598=CARTESIAN_POINT('',(-1.21116653931858,0.752980196252983,-1.74838271594513E-16));
#1599=CARTESIAN_POINT('Origin',(-2.59178900607663,-1.09592346142922,-8.74191357972564E-17));
#1600=CARTESIAN_POINT('Origin',(-2.59178900607663,-1.09592346142922,-8.74191357972564E-17));
#1601=CARTESIAN_POINT('Origin',(-2.59178900607663,-1.09592346142922,0.5));
#1602=CARTESIAN_POINT('Origin',(-1.74892184063458,-0.077258035305701,0.));
#1603=CARTESIAN_POINT('',(-1.14037741356912,0.698521617251999,0.5));
#1604=CARTESIAN_POINT('Origin',(-1.74892184063458,-0.077258035305701,0.5));
#1605=CARTESIAN_POINT('',(-1.14037741356912,0.698521617251999,0.));
#1606=CARTESIAN_POINT('',(-1.14037741356912,0.698521617251999,0.));
#1607=CARTESIAN_POINT('Origin',(-1.74892184063458,-0.077258035305701,0.));
#1608=CARTESIAN_POINT('Origin',(-0.757643424913795,0.250448404348477,0.));
#1609=CARTESIAN_POINT('',(-0.749589049471129,0.286690367734183,0.));
#1610=CARTESIAN_POINT('',(-0.722188887597957,0.239433475499775,0.));
#1611=CARTESIAN_POINT('Origin',(-0.757643424913795,0.250448404348477,0.));
#1612=CARTESIAN_POINT('',(-0.722188887597957,0.239433475499775,0.5));
#1613=CARTESIAN_POINT('',(-0.722188887597957,0.239433475499775,0.));
#1614=CARTESIAN_POINT('',(-0.749589049471129,0.286690367734183,0.5));
#1615=CARTESIAN_POINT('Origin',(-0.757643424913795,0.250448404348477,0.5));
#1616=CARTESIAN_POINT('',(-0.749589049471129,0.286690367734183,0.));
#1617=CARTESIAN_POINT('Origin',(-0.758622370709285,0.257899551946205,0.));
#1618=CARTESIAN_POINT('',(-0.749589049471129,0.218064971763189,0.));
#1619=CARTESIAN_POINT('Origin',(-0.758622370709285,0.257899551946205,0.));
#1620=CARTESIAN_POINT('',(-0.749589049471129,0.218064971763189,0.5));
#1621=CARTESIAN_POINT('',(-0.749589049471129,0.218064971763189,0.));
#1622=CARTESIAN_POINT('Origin',(-0.758622370709285,0.257899551946205,0.5));
#1623=CARTESIAN_POINT('Origin',(-0.723563320838877,0.107892415063017,0.));
#1624=CARTESIAN_POINT('',(-0.826860811377663,0.154206119828255,0.));
#1625=CARTESIAN_POINT('Origin',(-0.723563320838877,0.107892415063017,0.));
#1626=CARTESIAN_POINT('',(-0.826860811377663,0.154206119828255,0.5));
#1627=CARTESIAN_POINT('',(-0.826860811377663,0.154206119828255,0.));
#1628=CARTESIAN_POINT('Origin',(-0.723563320838877,0.107892415063017,0.5));
#1629=CARTESIAN_POINT('Origin',(-0.723219301947537,0.121620187910479,0.));
#1630=CARTESIAN_POINT('',(-0.823624581716637,0.080120968274523,0.));
#1631=CARTESIAN_POINT('Origin',(-0.723219301947537,0.121620187910479,0.));
#1632=CARTESIAN_POINT('',(-0.823624581716637,0.080120968274523,0.5));
#1633=CARTESIAN_POINT('',(-0.823624581716637,0.080120968274523,0.));
#1634=CARTESIAN_POINT('Origin',(-0.723219301947537,0.121620187910479,0.5));
#1635=CARTESIAN_POINT('Origin',(-0.708065130698037,0.144705815435057,0.));
#1636=CARTESIAN_POINT('',(-0.653459701753363,0.024109644964191,0.));
#1637=CARTESIAN_POINT('Origin',(-0.708065130698037,0.144705815435057,0.));
#1638=CARTESIAN_POINT('',(-0.653459701753363,0.024109644964191,0.5));
#1639=CARTESIAN_POINT('',(-0.653459701753363,0.024109644964191,0.));
#1640=CARTESIAN_POINT('Origin',(-0.708065130698037,0.144705815435057,0.5));
#1641=CARTESIAN_POINT('Origin',(-0.760742830072107,0.647448435792619,0.));
#1642=CARTESIAN_POINT('',(-0.515491798215371,0.0644279823379311,0.));
#1643=CARTESIAN_POINT('Origin',(-0.760742830072107,0.647448435792619,0.));
#1644=CARTESIAN_POINT('',(-0.515491798215371,0.0644279823379311,0.5));
#1645=CARTESIAN_POINT('',(-0.515491798215371,0.0644279823379311,0.));
#1646=CARTESIAN_POINT('Origin',(-0.760742830072107,0.647448435792619,0.5));
#1647=CARTESIAN_POINT('Origin',(-0.469952321852069,0.023255211520853,0.));
#1648=CARTESIAN_POINT('',(-0.466094501115925,0.0845263971089191,0.));
#1649=CARTESIAN_POINT('Origin',(-0.469952321852069,0.023255211520853,0.));
#1650=CARTESIAN_POINT('',(-0.466094501115925,0.0845263971089191,0.5));
#1651=CARTESIAN_POINT('',(-0.466094501115925,0.0845263971089191,0.));
#1652=CARTESIAN_POINT('Origin',(-0.469952321852069,0.023255211520853,0.5));
#1653=CARTESIAN_POINT('Origin',(-0.469259665210759,0.0438415969293931,0.));
#1654=CARTESIAN_POINT('',(-0.428451930289604,0.0438415969293931,0.));
#1655=CARTESIAN_POINT('',(-0.428451930289604,0.0438415969293931,0.5));
#1656=CARTESIAN_POINT('',(-0.428451930289604,0.0438415969293931,0.));
#1657=CARTESIAN_POINT('Origin',(-0.469259665210759,0.0438415969293931,0.5));
#1658=CARTESIAN_POINT('Origin',(-0.469259665210759,0.0438415969293931,0.));
#1659=CARTESIAN_POINT('Origin',(0.469955335955319,0.023255211520853,0.));
#1660=CARTESIAN_POINT('',(0.466097515219175,0.0845263971089191,0.));
#1661=CARTESIAN_POINT('',(0.515494812318621,0.0644279823379311,0.));
#1662=CARTESIAN_POINT('Origin',(0.469955335955319,0.023255211520853,0.));
#1663=CARTESIAN_POINT('',(0.515494812318621,0.0644279823379311,0.5));
#1664=CARTESIAN_POINT('',(0.515494812318621,0.0644279823379311,0.));
#1665=CARTESIAN_POINT('',(0.466097515219175,0.0845263971089191,0.5));
#1666=CARTESIAN_POINT('Origin',(0.469955335955319,0.023255211520853,0.5));
#1667=CARTESIAN_POINT('',(0.466097515219175,0.0845263971089191,0.));
#1668=CARTESIAN_POINT('Origin',(0.760745844175359,0.647448435792619,0.));
#1669=CARTESIAN_POINT('',(0.653462715856613,0.024109644964191,0.));
#1670=CARTESIAN_POINT('Origin',(0.760745844175359,0.647448435792619,0.));
#1671=CARTESIAN_POINT('',(0.653462715856613,0.024109644964191,0.5));
#1672=CARTESIAN_POINT('',(0.653462715856613,0.024109644964191,0.));
#1673=CARTESIAN_POINT('Origin',(0.760745844175359,0.647448435792619,0.5));
#1674=CARTESIAN_POINT('Origin',(0.708068144801287,0.144705815435057,0.));
#1675=CARTESIAN_POINT('',(0.823627595819887,0.080120968274523,0.));
#1676=CARTESIAN_POINT('Origin',(0.708068144801287,0.144705815435057,0.));
#1677=CARTESIAN_POINT('',(0.823627595819887,0.080120968274523,0.5));
#1678=CARTESIAN_POINT('',(0.823627595819887,0.080120968274523,0.));
#1679=CARTESIAN_POINT('Origin',(0.708068144801287,0.144705815435057,0.5));
#1680=CARTESIAN_POINT('Origin',(0.723222316050787,0.121620187910479,0.));
#1681=CARTESIAN_POINT('',(0.826863825480913,0.154206119828255,0.));
#1682=CARTESIAN_POINT('Origin',(0.723222316050787,0.121620187910479,0.));
#1683=CARTESIAN_POINT('',(0.826863825480913,0.154206119828255,0.5));
#1684=CARTESIAN_POINT('',(0.826863825480913,0.154206119828255,0.));
#1685=CARTESIAN_POINT('Origin',(0.723222316050787,0.121620187910479,0.5));
#1686=CARTESIAN_POINT('Origin',(0.723566334942127,0.107892415063017,0.));
#1687=CARTESIAN_POINT('',(0.749592063574379,0.218064971763189,0.));
#1688=CARTESIAN_POINT('Origin',(0.723566334942127,0.107892415063017,0.));
#1689=CARTESIAN_POINT('',(0.749592063574379,0.218064971763189,0.5));
#1690=CARTESIAN_POINT('',(0.749592063574379,0.218064971763189,0.));
#1691=CARTESIAN_POINT('Origin',(0.723566334942127,0.107892415063017,0.5));
#1692=CARTESIAN_POINT('Origin',(0.758625384812535,0.257899551946205,0.));
#1693=CARTESIAN_POINT('',(0.722191901701207,0.239433475499775,0.));
#1694=CARTESIAN_POINT('Origin',(0.758625384812535,0.257899551946205,0.));
#1695=CARTESIAN_POINT('',(0.722191901701207,0.239433475499775,0.5));
#1696=CARTESIAN_POINT('',(0.722191901701207,0.239433475499775,0.));
#1697=CARTESIAN_POINT('Origin',(0.758625384812535,0.257899551946205,0.5));
#1698=CARTESIAN_POINT('Origin',(0.757646439017045,0.250448404348477,0.));
#1699=CARTESIAN_POINT('',(0.749592063574379,0.286690367734183,0.));
#1700=CARTESIAN_POINT('Origin',(0.757646439017045,0.250448404348477,0.));
#1701=CARTESIAN_POINT('',(0.749592063574379,0.286690367734183,0.5));
#1702=CARTESIAN_POINT('',(0.749592063574379,0.286690367734183,0.));
#1703=CARTESIAN_POINT('Origin',(0.757646439017045,0.250448404348477,0.5));
#1704=CARTESIAN_POINT('Origin',(-0.158187231993138,2.40812853125596,0.));
#1705=CARTESIAN_POINT('Origin',(-0.158187231993138,2.40812853125596,0.5));
#1706=CARTESIAN_POINT('Origin',(-0.158187231993138,2.40812853125596,0.));
#1707=CARTESIAN_POINT('Origin',(0.0536599153648757,2.17158794973642,0.));
#1708=CARTESIAN_POINT('',(1.14038042767237,0.698521617251999,0.));
#1709=CARTESIAN_POINT('',(0.770227931489485,0.487124780048163,0.));
#1710=CARTESIAN_POINT('Origin',(0.0536599153648757,2.17158794973642,0.));
#1711=CARTESIAN_POINT('',(0.770227931489485,0.487124780048163,0.5));
#1712=CARTESIAN_POINT('',(0.770227931489485,0.487124780048163,0.));
#1713=CARTESIAN_POINT('',(1.14038042767237,0.698521617251999,0.5));
#1714=CARTESIAN_POINT('Origin',(0.0536599153648757,2.17158794973642,0.5));
#1715=CARTESIAN_POINT('',(1.14038042767237,0.698521617251999,0.));
#1716=CARTESIAN_POINT('Origin',(0.543272217204507,1.0206380450288,0.));
#1717=CARTESIAN_POINT('',(0.356858638638239,0.471643256453331,0.));
#1718=CARTESIAN_POINT('Origin',(0.543272217204507,1.0206380450288,0.));
#1719=CARTESIAN_POINT('',(0.356858638638239,0.471643256453331,0.5));
#1720=CARTESIAN_POINT('',(0.356858638638239,0.471643256453331,0.));
#1721=CARTESIAN_POINT('Origin',(0.543272217204507,1.0206380450288,0.5));
#1722=CARTESIAN_POINT('Origin',(0.122506152574935,-0.258231520477629,0.));
#1723=CARTESIAN_POINT('',(1.50705158867783E-6,0.498492266349037,0.));
#1724=CARTESIAN_POINT('Origin',(0.122506152574935,-0.258231520477629,0.));
#1725=CARTESIAN_POINT('',(1.50705158869149E-6,0.498492266349037,0.5));
#1726=CARTESIAN_POINT('',(1.50705158867783E-6,0.498492266349037,0.));
#1727=CARTESIAN_POINT('Origin',(0.122506152574935,-0.258231520477629,0.5));
#1728=CARTESIAN_POINT('Origin',(-0.122503138471684,-0.258231520477629,0.));
#1729=CARTESIAN_POINT('',(-0.356855624534989,0.471643256453331,0.));
#1730=CARTESIAN_POINT('Origin',(-0.122503138471684,-0.258231520477629,0.));
#1731=CARTESIAN_POINT('',(-0.356855624534989,0.471643256453331,0.5));
#1732=CARTESIAN_POINT('',(-0.356855624534989,0.471643256453331,0.));
#1733=CARTESIAN_POINT('Origin',(-0.122503138471684,-0.258231520477629,0.5));
#1734=CARTESIAN_POINT('Origin',(-0.543269203101257,1.0206380450288,0.));
#1735=CARTESIAN_POINT('',(-0.770224917386235,0.487124780048163,0.));
#1736=CARTESIAN_POINT('Origin',(-0.543269203101257,1.0206380450288,0.));
#1737=CARTESIAN_POINT('',(-0.770224917386235,0.487124780048163,0.5));
#1738=CARTESIAN_POINT('',(-0.770224917386235,0.487124780048163,0.));
#1739=CARTESIAN_POINT('Origin',(-0.543269203101257,1.0206380450288,0.5));
#1740=CARTESIAN_POINT('Origin',(-0.0536569012616249,2.17158794973642,0.));
#1741=CARTESIAN_POINT('Origin',(-0.0536569012616249,2.17158794973642,0.));
#1742=CARTESIAN_POINT('Origin',(-0.0536569012616249,2.17158794973642,0.5));
#1743=CARTESIAN_POINT('Origin',(0.469262679314009,0.0438415969293931,0.));
#1744=CARTESIAN_POINT('',(0.428454944392854,0.0438415969293931,0.5));
#1745=CARTESIAN_POINT('',(0.428454944392854,0.0438415969293931,0.));
#1746=CARTESIAN_POINT('',(0.428454944392854,0.0438415969293931,0.));
#1747=CARTESIAN_POINT('Origin',(0.469262679314009,0.0438415969293931,0.));
#1748=CARTESIAN_POINT('Origin',(0.469262679314009,0.0438415969293931,0.5));
#1749=CARTESIAN_POINT('Origin',(-0.469259665210759,0.0438415969293931,0.5));
#1750=CARTESIAN_POINT('',(-0.201545055607146,0.0438415969293931,0.5));
#1751=CARTESIAN_POINT('',(-0.201545055607146,0.0438415969293931,0.));
#1752=CARTESIAN_POINT('',(-0.201545055607146,0.0438415969293931,0.25));
#1753=CARTESIAN_POINT('',(0.208800974333228,0.0438415969293931,0.));
#1754=CARTESIAN_POINT('',(-0.234629079079567,0.0438415969293932,0.));
#1755=CARTESIAN_POINT('',(0.208800974333228,0.0438415969293931,0.5));
#1756=CARTESIAN_POINT('',(0.208800974333228,0.0438415969293931,0.5));
#1757=CARTESIAN_POINT('',(-0.234629079079567,0.0438415969293932,0.5));
#1758=CARTESIAN_POINT('Origin',(0.318627959363041,-0.106158403070607,0.25));
#1759=CARTESIAN_POINT('',(0.428454944392854,-0.106158403070607,0.5));
#1760=CARTESIAN_POINT('',(0.208800974333228,-0.106158403070607,0.5));
#1761=CARTESIAN_POINT('',(0.208800974333228,-0.106158403070607,0.5));
#1762=CARTESIAN_POINT('',(0.208800974333228,-0.106158403070607,0.));
#1763=CARTESIAN_POINT('',(0.208800974333228,-0.106158403070607,0.));
#1764=CARTESIAN_POINT('',(0.428454944392854,-0.106158403070607,0.));
#1765=CARTESIAN_POINT('',(0.428454944392854,-0.106158403070607,0.));
#1766=CARTESIAN_POINT('',(0.428454944392854,-0.106158403070607,0.5));
#1767=CARTESIAN_POINT('Origin',(0.208800974333228,0.0438415969293931,0.5));
#1768=CARTESIAN_POINT('',(0.208800974333228,0.0438415969293931,0.));
#1769=CARTESIAN_POINT('',(0.208800974333228,0.0438415969293931,0.5));
#1770=CARTESIAN_POINT('Origin',(0.428454944392854,0.0438415969293931,0.));
#1771=CARTESIAN_POINT('',(0.428454944392854,0.0438415969293931,0.5));
#1772=CARTESIAN_POINT('',(0.428454944392854,0.0438415969293931,0.));
#1773=CARTESIAN_POINT('Origin',(-0.469259665210759,0.0438415969293931,0.5));
#1774=CARTESIAN_POINT('',(-0.421199025666772,0.0438415969293931,0.));
#1775=CARTESIAN_POINT('',(-0.421199025666772,0.0438415969293931,0.5));
#1776=CARTESIAN_POINT('',(-0.421199025666772,0.0438415969293931,0.5));
#1777=CARTESIAN_POINT('',(-0.234629079079567,0.0438415969293932,0.5));
#1778=CARTESIAN_POINT('',(-0.234629079079567,0.0438415969293932,0.));
#1779=CARTESIAN_POINT('Origin',(-0.311372040636959,-0.106158403070607,0.25));
#1780=CARTESIAN_POINT('',(-0.421199025666772,-0.106158403070607,0.5));
#1781=CARTESIAN_POINT('',(-0.421199025666772,-0.106158403070607,0.));
#1782=CARTESIAN_POINT('',(-0.421199025666772,-0.106158403070607,0.));
#1783=CARTESIAN_POINT('',(-0.201545055607146,-0.106158403070607,0.));
#1784=CARTESIAN_POINT('',(-0.201545055607146,-0.106158403070607,0.));
#1785=CARTESIAN_POINT('',(-0.201545055607146,-0.106158403070607,0.5));
#1786=CARTESIAN_POINT('',(-0.201545055607146,-0.106158403070607,0.5));
#1787=CARTESIAN_POINT('',(-0.421199025666772,-0.106158403070607,0.5));
#1788=CARTESIAN_POINT('Origin',(-0.421199025666772,0.0438415969293931,0.5));
#1789=CARTESIAN_POINT('',(-0.421199025666772,0.0438415969293931,0.));
#1790=CARTESIAN_POINT('',(-0.421199025666772,0.0438415969293931,0.5));
#1791=CARTESIAN_POINT('Origin',(-0.201545055607146,0.0438415969293931,0.));
#1792=CARTESIAN_POINT('',(-0.201545055607146,0.0438415969293931,0.5));
#1793=CARTESIAN_POINT('',(-0.201545055607146,0.0438415969293931,0.));
#1794=CARTESIAN_POINT('Origin',(0.158190246096389,2.40812853125596,0.));
#1795=CARTESIAN_POINT('Origin',(0.158190246096389,2.40812853125596,0.));
#1796=CARTESIAN_POINT('Origin',(0.158190246096389,2.40812853125596,0.5));
#1797=CARTESIAN_POINT('Origin',(1.50705162553721E-6,0.289711377878643,0.));
#1798=CARTESIAN_POINT('Origin',(1.74892485473784,-0.077258035305701,0.));
#1799=CARTESIAN_POINT('Origin',(1.74892485473784,-0.077258035305701,0.));
#1800=CARTESIAN_POINT('Origin',(1.74892485473784,-0.077258035305701,0.5));
#1801=CARTESIAN_POINT('Origin',(1.50705162553721E-6,0.289711377878643,0.5));
#1802=UNCERTAINTY_MEASURE_WITH_UNIT(LENGTH_MEASURE(0.000393700787401575),
#1807,'DISTANCE_ACCURACY_VALUE',
'Maximum model space distance between geometric entities at asserted c
onnectivities');
#1803=UNCERTAINTY_MEASURE_WITH_UNIT(LENGTH_MEASURE(0.000393700787401575),
#1807,'DISTANCE_ACCURACY_VALUE',
'Maximum model space distance between geometric entities at asserted c
onnectivities');
#1804=(
GEOMETRIC_REPRESENTATION_CONTEXT(3)
GLOBAL_UNCERTAINTY_ASSIGNED_CONTEXT((#1802))
GLOBAL_UNIT_ASSIGNED_CONTEXT((#1807,#1811,#1812))
REPRESENTATION_CONTEXT('','3D')
);
#1805=(
GEOMETRIC_REPRESENTATION_CONTEXT(3)
GLOBAL_UNCERTAINTY_ASSIGNED_CONTEXT((#1803))
GLOBAL_UNIT_ASSIGNED_CONTEXT((#1807,#1811,#1812))
REPRESENTATION_CONTEXT('','3D')
);
#1806=DIMENSIONAL_EXPONENTS(1.,0.,0.,0.,0.,0.,0.);
#1807=(
CONVERSION_BASED_UNIT('inch',#1810)
LENGTH_UNIT()
NAMED_UNIT(#1806)
);
#1808=(
LENGTH_UNIT()
NAMED_UNIT(*)
SI_UNIT(.MILLI.,.METRE.)
);
#1809=(
LENGTH_UNIT()
NAMED_UNIT(*)
SI_UNIT($,.METRE.)
);
#1810=LENGTH_MEASURE_WITH_UNIT(LENGTH_MEASURE(25.4),#1808);
#1811=(
NAMED_UNIT(*)
PLANE_ANGLE_UNIT()
SI_UNIT($,.RADIAN.)
);
#1812=(
NAMED_UNIT(*)
SI_UNIT($,.STERADIAN.)
SOLID_ANGLE_UNIT()
);
#1813=SHAPE_DEFINITION_REPRESENTATION(#1814,#1815);
#1814=PRODUCT_DEFINITION_SHAPE('',$,#1817);
#1815=SHAPE_REPRESENTATION('',(#1038),#1804);
#1816=PRODUCT_DEFINITION_CONTEXT('part definition',#1821,'design');
#1817=PRODUCT_DEFINITION('2026-04-30-19-52-09-687','UT Longhorn',#1818,
#1816);
#1818=PRODUCT_DEFINITION_FORMATION('',$,#1823);
#1819=PRODUCT_RELATED_PRODUCT_CATEGORY('UT Longhorn','UT Longhorn',(#1823));
#1820=APPLICATION_PROTOCOL_DEFINITION('international standard',
'automotive_design',2009,#1821);
#1821=APPLICATION_CONTEXT(
'Core Data for Automotive Mechanical Design Process');
#1822=PRODUCT_CONTEXT('part definition',#1821,'mechanical');
#1823=PRODUCT('2026-04-30-19-52-09-687','UT Longhorn',$,(#1822));
#1824=PRESENTATION_STYLE_ASSIGNMENT((#1827));
#1825=PRESENTATION_STYLE_ASSIGNMENT((#1828));
#1826=PRESENTATION_STYLE_ASSIGNMENT((#1829));
#1827=SURFACE_STYLE_USAGE(.BOTH.,#1830);
#1828=SURFACE_STYLE_USAGE(.BOTH.,#1831);
#1829=SURFACE_STYLE_USAGE(.BOTH.,#1832);
#1830=SURFACE_SIDE_STYLE('',(#1833));
#1831=SURFACE_SIDE_STYLE('',(#1834));
#1832=SURFACE_SIDE_STYLE('',(#1835));
#1833=SURFACE_STYLE_FILL_AREA(#1836);
#1834=SURFACE_STYLE_FILL_AREA(#1837);
#1835=SURFACE_STYLE_FILL_AREA(#1838);
#1836=FILL_AREA_STYLE('Steel - Satin',(#1839));
#1837=FILL_AREA_STYLE('Opaque(191,191,191)',(#1840));
#1838=FILL_AREA_STYLE('Opaque(255,106,0)',(#1841));
#1839=FILL_AREA_STYLE_COLOUR('Steel - Satin',#1842);
#1840=FILL_AREA_STYLE_COLOUR('Opaque(191,191,191)',#1843);
#1841=FILL_AREA_STYLE_COLOUR('Opaque(255,106,0)',#1844);
#1842=COLOUR_RGB('Steel - Satin',0.627450980392157,0.627450980392157,0.627450980392157);
#1843=COLOUR_RGB('Opaque(191,191,191)',0.749019607843137,0.749019607843137,
0.749019607843137);
#1844=COLOUR_RGB('Opaque(255,106,0)',1.,0.415686274509804,0.);
ENDSEC;
END-ISO-10303-21;
