ISO-10303-21;
HEADER;
/* Generated by software containing ST-Developer
 * from STEP Tools, Inc. (www.steptools.com) 
 */

FILE_DESCRIPTION(
/* description */ (''),
/* implementation_level */ '2;1');

FILE_NAME(
/* name */ 'Hat.step',
/* time_stamp */ '2026-09-17T19:21:49-07:00',
/* author */ (''),
/* organization */ (''),
/* preprocessor_version */ 'ST-DEVELOPER v20.1',
/* originating_system */ 'Autodesk Translation Framework v15.8.0.0',
/* authorisation */ '');

FILE_SCHEMA (('AUTOMOTIVE_DESIGN { 1 0 10303 214 3 1 1 }'));
ENDSEC;

DATA;
#10=MECHANICAL_DESIGN_GEOMETRIC_PRESENTATION_REPRESENTATION('',(#17),#372);
#11=SHAPE_REPRESENTATION_RELATIONSHIP('SRR','None',#382,#12);
#12=ADVANCED_BREP_SHAPE_REPRESENTATION('',(#18),#370);
#13=ITEM_DEFINED_TRANSFORMATION($,$,#228,#246);
#14=(
REPRESENTATION_RELATIONSHIP($,$,#383,#382)
REPRESENTATION_RELATIONSHIP_WITH_TRANSFORMATION(#13)
SHAPE_REPRESENTATION_RELATIONSHIP()
);
#15=CONTEXT_DEPENDENT_SHAPE_REPRESENTATION(#14,#381);
#16=NEXT_ASSEMBLY_USAGE_OCCURRENCE('part_object_id_1:1',
'part_object_id_1:1','part_object_id_1:1',#385,#386,
'part_object_id_1:1');
#17=STYLED_ITEM('',(#396),#18);
#18=MANIFOLD_SOLID_BREP('Body1',#214);
#19=CYLINDRICAL_SURFACE('',#237,3.95);
#20=CYLINDRICAL_SURFACE('',#240,3.95);
#21=CYLINDRICAL_SURFACE('',#243,14.6377844398813);
#22=FACE_BOUND('',#45,.T.);
#23=FACE_BOUND('',#53,.T.);
#24=CIRCLE('',#233,14.6377844398813);
#25=CIRCLE('',#234,3.95);
#26=CIRCLE('',#235,3.95);
#27=CIRCLE('',#238,3.95);
#28=CIRCLE('',#241,3.95);
#29=CIRCLE('',#244,14.6377844398813);
#30=FACE_OUTER_BOUND('',#41,.T.);
#31=FACE_OUTER_BOUND('',#42,.T.);
#32=FACE_OUTER_BOUND('',#43,.T.);
#33=FACE_OUTER_BOUND('',#44,.T.);
#34=FACE_OUTER_BOUND('',#46,.T.);
#35=FACE_OUTER_BOUND('',#47,.T.);
#36=FACE_OUTER_BOUND('',#48,.T.);
#37=FACE_OUTER_BOUND('',#49,.T.);
#38=FACE_OUTER_BOUND('',#50,.T.);
#39=FACE_OUTER_BOUND('',#51,.T.);
#40=FACE_OUTER_BOUND('',#52,.T.);
#41=EDGE_LOOP('',(#141,#142,#143,#144));
#42=EDGE_LOOP('',(#145,#146,#147,#148));
#43=EDGE_LOOP('',(#149,#150,#151,#152));
#44=EDGE_LOOP('',(#153));
#45=EDGE_LOOP('',(#154,#155,#156,#157,#158,#159,#160,#161));
#46=EDGE_LOOP('',(#162,#163,#164,#165));
#47=EDGE_LOOP('',(#166,#167,#168,#169));
#48=EDGE_LOOP('',(#170,#171,#172,#173));
#49=EDGE_LOOP('',(#174,#175,#176,#177));
#50=EDGE_LOOP('',(#178,#179,#180,#181));
#51=EDGE_LOOP('',(#182,#183,#184,#185));
#52=EDGE_LOOP('',(#186));
#53=EDGE_LOOP('',(#187,#188,#189,#190,#191,#192,#193,#194));
#54=LINE('',#313,#75);
#55=LINE('',#315,#76);
#56=LINE('',#317,#77);
#57=LINE('',#318,#78);
#58=LINE('',#321,#79);
#59=LINE('',#323,#80);
#60=LINE('',#324,#81);
#61=LINE('',#327,#82);
#62=LINE('',#329,#83);
#63=LINE('',#330,#84);
#64=LINE('',#335,#85);
#65=LINE('',#339,#86);
#66=LINE('',#342,#87);
#67=LINE('',#345,#88);
#68=LINE('',#346,#89);
#69=LINE('',#351,#90);
#70=LINE('',#352,#91);
#71=LINE('',#355,#92);
#72=LINE('',#356,#93);
#73=LINE('',#360,#94);
#74=LINE('',#363,#95);
#75=VECTOR('',#253,10.);
#76=VECTOR('',#254,10.);
#77=VECTOR('',#255,10.);
#78=VECTOR('',#256,10.);
#79=VECTOR('',#259,10.);
#80=VECTOR('',#260,10.);
#81=VECTOR('',#261,10.);
#82=VECTOR('',#264,10.);
#83=VECTOR('',#265,10.);
#84=VECTOR('',#266,10.);
#85=VECTOR('',#271,10.);
#86=VECTOR('',#274,10.);
#87=VECTOR('',#277,10.);
#88=VECTOR('',#280,10.);
#89=VECTOR('',#281,10.);
#90=VECTOR('',#286,10.);
#91=VECTOR('',#287,10.);
#92=VECTOR('',#290,10.);
#93=VECTOR('',#291,10.);
#94=VECTOR('',#298,10.);
#95=VECTOR('',#301,14.6377844398813);
#96=VERTEX_POINT('',#311);
#97=VERTEX_POINT('',#312);
#98=VERTEX_POINT('',#314);
#99=VERTEX_POINT('',#316);
#100=VERTEX_POINT('',#320);
#101=VERTEX_POINT('',#322);
#102=VERTEX_POINT('',#326);
#103=VERTEX_POINT('',#328);
#104=VERTEX_POINT('',#332);
#105=VERTEX_POINT('',#334);
#106=VERTEX_POINT('',#336);
#107=VERTEX_POINT('',#338);
#108=VERTEX_POINT('',#340);
#109=VERTEX_POINT('',#344);
#110=VERTEX_POINT('',#348);
#111=VERTEX_POINT('',#349);
#112=VERTEX_POINT('',#354);
#113=VERTEX_POINT('',#362);
#114=EDGE_CURVE('',#96,#97,#54,.T.);
#115=EDGE_CURVE('',#98,#96,#55,.T.);
#116=EDGE_CURVE('',#99,#98,#56,.T.);
#117=EDGE_CURVE('',#99,#97,#57,.T.);
#118=EDGE_CURVE('',#97,#100,#58,.T.);
#119=EDGE_CURVE('',#101,#99,#59,.T.);
#120=EDGE_CURVE('',#100,#101,#60,.T.);
#121=EDGE_CURVE('',#102,#96,#61,.T.);
#122=EDGE_CURVE('',#103,#102,#62,.T.);
#123=EDGE_CURVE('',#98,#103,#63,.T.);
#124=EDGE_CURVE('',#104,#104,#24,.T.);
#125=EDGE_CURVE('',#100,#105,#64,.T.);
#126=EDGE_CURVE('',#105,#106,#25,.T.);
#127=EDGE_CURVE('',#106,#107,#65,.T.);
#128=EDGE_CURVE('',#107,#108,#26,.T.);
#129=EDGE_CURVE('',#108,#102,#66,.T.);
#130=EDGE_CURVE('',#109,#101,#67,.F.);
#131=EDGE_CURVE('',#109,#105,#68,.T.);
#132=EDGE_CURVE('',#110,#111,#27,.F.);
#133=EDGE_CURVE('',#110,#108,#69,.T.);
#134=EDGE_CURVE('',#111,#107,#70,.T.);
#135=EDGE_CURVE('',#111,#112,#71,.F.);
#136=EDGE_CURVE('',#112,#106,#72,.T.);
#137=EDGE_CURVE('',#112,#109,#28,.F.);
#138=EDGE_CURVE('',#103,#110,#73,.F.);
#139=EDGE_CURVE('',#104,#113,#74,.T.);
#140=EDGE_CURVE('',#113,#113,#29,.T.);
#141=ORIENTED_EDGE('',*,*,#114,.F.);
#142=ORIENTED_EDGE('',*,*,#115,.F.);
#143=ORIENTED_EDGE('',*,*,#116,.F.);
#144=ORIENTED_EDGE('',*,*,#117,.T.);
#145=ORIENTED_EDGE('',*,*,#118,.F.);
#146=ORIENTED_EDGE('',*,*,#117,.F.);
#147=ORIENTED_EDGE('',*,*,#119,.F.);
#148=ORIENTED_EDGE('',*,*,#120,.F.);
#149=ORIENTED_EDGE('',*,*,#121,.F.);
#150=ORIENTED_EDGE('',*,*,#122,.F.);
#151=ORIENTED_EDGE('',*,*,#123,.F.);
#152=ORIENTED_EDGE('',*,*,#115,.T.);
#153=ORIENTED_EDGE('',*,*,#124,.T.);
#154=ORIENTED_EDGE('',*,*,#121,.T.);
#155=ORIENTED_EDGE('',*,*,#114,.T.);
#156=ORIENTED_EDGE('',*,*,#118,.T.);
#157=ORIENTED_EDGE('',*,*,#125,.T.);
#158=ORIENTED_EDGE('',*,*,#126,.T.);
#159=ORIENTED_EDGE('',*,*,#127,.T.);
#160=ORIENTED_EDGE('',*,*,#128,.T.);
#161=ORIENTED_EDGE('',*,*,#129,.T.);
#162=ORIENTED_EDGE('',*,*,#120,.T.);
#163=ORIENTED_EDGE('',*,*,#130,.F.);
#164=ORIENTED_EDGE('',*,*,#131,.T.);
#165=ORIENTED_EDGE('',*,*,#125,.F.);
#166=ORIENTED_EDGE('',*,*,#132,.F.);
#167=ORIENTED_EDGE('',*,*,#133,.T.);
#168=ORIENTED_EDGE('',*,*,#128,.F.);
#169=ORIENTED_EDGE('',*,*,#134,.F.);
#170=ORIENTED_EDGE('',*,*,#135,.F.);
#171=ORIENTED_EDGE('',*,*,#134,.T.);
#172=ORIENTED_EDGE('',*,*,#127,.F.);
#173=ORIENTED_EDGE('',*,*,#136,.F.);
#174=ORIENTED_EDGE('',*,*,#137,.F.);
#175=ORIENTED_EDGE('',*,*,#136,.T.);
#176=ORIENTED_EDGE('',*,*,#126,.F.);
#177=ORIENTED_EDGE('',*,*,#131,.F.);
#178=ORIENTED_EDGE('',*,*,#122,.T.);
#179=ORIENTED_EDGE('',*,*,#129,.F.);
#180=ORIENTED_EDGE('',*,*,#133,.F.);
#181=ORIENTED_EDGE('',*,*,#138,.F.);
#182=ORIENTED_EDGE('',*,*,#124,.F.);
#183=ORIENTED_EDGE('',*,*,#139,.T.);
#184=ORIENTED_EDGE('',*,*,#140,.F.);
#185=ORIENTED_EDGE('',*,*,#139,.F.);
#186=ORIENTED_EDGE('',*,*,#140,.T.);
#187=ORIENTED_EDGE('',*,*,#123,.T.);
#188=ORIENTED_EDGE('',*,*,#138,.T.);
#189=ORIENTED_EDGE('',*,*,#132,.T.);
#190=ORIENTED_EDGE('',*,*,#135,.T.);
#191=ORIENTED_EDGE('',*,*,#137,.T.);
#192=ORIENTED_EDGE('',*,*,#130,.T.);
#193=ORIENTED_EDGE('',*,*,#119,.T.);
#194=ORIENTED_EDGE('',*,*,#116,.T.);
#195=PLANE('',#229);
#196=PLANE('',#230);
#197=PLANE('',#231);
#198=PLANE('',#232);
#199=PLANE('',#236);
#200=PLANE('',#239);
#201=PLANE('',#242);
#202=PLANE('',#245);
#203=ADVANCED_FACE('',(#30),#195,.F.);
#204=ADVANCED_FACE('',(#31),#196,.F.);
#205=ADVANCED_FACE('',(#32),#197,.F.);
#206=ADVANCED_FACE('',(#33,#22),#198,.F.);
#207=ADVANCED_FACE('',(#34),#199,.T.);
#208=ADVANCED_FACE('',(#35),#19,.F.);
#209=ADVANCED_FACE('',(#36),#200,.T.);
#210=ADVANCED_FACE('',(#37),#20,.F.);
#211=ADVANCED_FACE('',(#38),#201,.T.);
#212=ADVANCED_FACE('',(#39),#21,.T.);
#213=ADVANCED_FACE('',(#40,#23),#202,.T.);
#214=CLOSED_SHELL('',(#203,#204,#205,#206,#207,#208,#209,#210,#211,#212,
#213));
#215=DERIVED_UNIT_ELEMENT(#217,1.);
#216=DERIVED_UNIT_ELEMENT(#374,-3.);
#217=(
MASS_UNIT()
NAMED_UNIT(*)
SI_UNIT(.KILO.,.GRAM.)
);
#218=DERIVED_UNIT((#215,#216));
#219=MEASURE_REPRESENTATION_ITEM('density measure',
POSITIVE_RATIO_MEASURE(1380.),#218);
#220=PROPERTY_DEFINITION_REPRESENTATION(#225,#222);
#221=PROPERTY_DEFINITION_REPRESENTATION(#226,#223);
#222=REPRESENTATION('material name',(#224),#371);
#223=REPRESENTATION('density',(#219),#371);
#224=DESCRIPTIVE_REPRESENTATION_ITEM('Phenolic Resin','Phenolic Resin');
#225=PROPERTY_DEFINITION('material property','material name',#386);
#226=PROPERTY_DEFINITION('material property','density of part',#386);
#227=AXIS2_PLACEMENT_3D('',#308,#247,#248);
#228=AXIS2_PLACEMENT_3D('',#309,#249,#250);
#229=AXIS2_PLACEMENT_3D('',#310,#251,#252);
#230=AXIS2_PLACEMENT_3D('',#319,#257,#258);
#231=AXIS2_PLACEMENT_3D('',#325,#262,#263);
#232=AXIS2_PLACEMENT_3D('',#331,#267,#268);
#233=AXIS2_PLACEMENT_3D('',#333,#269,#270);
#234=AXIS2_PLACEMENT_3D('',#337,#272,#273);
#235=AXIS2_PLACEMENT_3D('',#341,#275,#276);
#236=AXIS2_PLACEMENT_3D('',#343,#278,#279);
#237=AXIS2_PLACEMENT_3D('',#347,#282,#283);
#238=AXIS2_PLACEMENT_3D('',#350,#284,#285);
#239=AXIS2_PLACEMENT_3D('',#353,#288,#289);
#240=AXIS2_PLACEMENT_3D('',#357,#292,#293);
#241=AXIS2_PLACEMENT_3D('',#358,#294,#295);
#242=AXIS2_PLACEMENT_3D('',#359,#296,#297);
#243=AXIS2_PLACEMENT_3D('',#361,#299,#300);
#244=AXIS2_PLACEMENT_3D('',#364,#302,#303);
#245=AXIS2_PLACEMENT_3D('',#365,#304,#305);
#246=AXIS2_PLACEMENT_3D('',#366,#306,#307);
#247=DIRECTION('axis',(0.,0.,1.));
#248=DIRECTION('refdir',(1.,0.,0.));
#249=DIRECTION('axis',(0.,0.,1.));
#250=DIRECTION('refdir',(1.,0.,0.));
#251=DIRECTION('center_axis',(0.,4.62592926927149E-17,1.));
#252=DIRECTION('ref_axis',(1.,0.,0.));
#253=DIRECTION('',(-1.,0.,0.));
#254=DIRECTION('',(0.,1.,-4.62592926927148E-17));
#255=DIRECTION('',(1.,0.,0.));
#256=DIRECTION('',(0.,1.,-4.62592926927148E-17));
#257=DIRECTION('center_axis',(-1.,0.,0.));
#258=DIRECTION('ref_axis',(0.,4.16333634234433E-17,1.));
#259=DIRECTION('',(0.,-4.16333634234433E-17,-1.));
#260=DIRECTION('',(0.,4.16333634234433E-17,1.));
#261=DIRECTION('',(0.,-1.,4.89804275569922E-17));
#262=DIRECTION('center_axis',(1.,0.,0.));
#263=DIRECTION('ref_axis',(0.,-4.16333634234433E-17,-1.));
#264=DIRECTION('',(0.,4.16333634234433E-17,1.));
#265=DIRECTION('',(0.,1.,-4.89804275569922E-17));
#266=DIRECTION('',(0.,-4.16333634234433E-17,-1.));
#267=DIRECTION('center_axis',(0.,-1.,4.16333634234433E-17));
#268=DIRECTION('ref_axis',(1.,0.,0.));
#269=DIRECTION('center_axis',(0.,1.,-4.16333634234433E-17));
#270=DIRECTION('ref_axis',(1.,0.,0.));
#271=DIRECTION('',(-1.,0.,0.));
#272=DIRECTION('center_axis',(0.,-1.,4.16333634234433E-17));
#273=DIRECTION('ref_axis',(0.,4.89804275569922E-17,1.));
#274=DIRECTION('',(1.,5.87571847440172E-33,1.41130045503198E-16));
#275=DIRECTION('center_axis',(0.,-1.,4.16333634234433E-17));
#276=DIRECTION('ref_axis',(0.,-4.89804275569922E-17,-1.));
#277=DIRECTION('',(-1.,0.,0.));
#278=DIRECTION('center_axis',(0.,-4.89804275569922E-17,-1.));
#279=DIRECTION('ref_axis',(-1.,0.,0.));
#280=DIRECTION('',(-1.,0.,0.));
#281=DIRECTION('',(0.,1.,-4.89804275569922E-17));
#282=DIRECTION('center_axis',(0.,1.,-4.89804275569922E-17));
#283=DIRECTION('ref_axis',(0.,-4.89804275569922E-17,-1.));
#284=DIRECTION('center_axis',(0.,-1.,4.16333634234433E-17));
#285=DIRECTION('ref_axis',(0.,-4.89804275569922E-17,-1.));
#286=DIRECTION('',(0.,1.,-4.89804275569922E-17));
#287=DIRECTION('',(0.,1.,-4.89804275569922E-17));
#288=DIRECTION('center_axis',(-1.41130045503198E-16,4.89804275569922E-17,
1.));
#289=DIRECTION('ref_axis',(1.,5.87571847440172E-33,1.41130045503198E-16));
#290=DIRECTION('',(1.,5.87571847440172E-33,1.41130045503198E-16));
#291=DIRECTION('',(0.,1.,-4.89804275569922E-17));
#292=DIRECTION('center_axis',(0.,1.,-4.89804275569922E-17));
#293=DIRECTION('ref_axis',(0.,4.89804275569922E-17,1.));
#294=DIRECTION('center_axis',(0.,-1.,4.16333634234433E-17));
#295=DIRECTION('ref_axis',(0.,4.89804275569922E-17,1.));
#296=DIRECTION('center_axis',(0.,-4.89804275569922E-17,-1.));
#297=DIRECTION('ref_axis',(-1.,0.,0.));
#298=DIRECTION('',(-1.,0.,0.));
#299=DIRECTION('center_axis',(0.,1.,-4.89804275569922E-17));
#300=DIRECTION('ref_axis',(1.,0.,0.));
#301=DIRECTION('',(0.,-1.,4.89804275569922E-17));
#302=DIRECTION('center_axis',(0.,-1.,4.16333634234433E-17));
#303=DIRECTION('ref_axis',(1.,0.,0.));
#304=DIRECTION('center_axis',(0.,-1.,4.16333634234433E-17));
#305=DIRECTION('ref_axis',(1.,0.,0.));
#306=DIRECTION('',(0.,0.,1.));
#307=DIRECTION('',(1.,0.,0.));
#308=CARTESIAN_POINT('',(0.,0.,0.));
#309=CARTESIAN_POINT('',(0.,0.,0.));
#310=CARTESIAN_POINT('Origin',(-2.10870209524127,-6.4,4.37122256636251));
#311=CARTESIAN_POINT('',(2.05154138579457,10.6,4.37122256636251));
#312=CARTESIAN_POINT('',(-2.10870209524127,10.6,4.37122256636251));
#313=CARTESIAN_POINT('',(-1.05435104762063,10.6,4.37122256636251));
#314=CARTESIAN_POINT('',(2.05154138579457,-6.4,4.37122256636251));
#315=CARTESIAN_POINT('',(2.05154138579457,-6.4,4.37122256636251));
#316=CARTESIAN_POINT('',(-2.10870209524127,-6.4,4.37122256636251));
#317=CARTESIAN_POINT('',(-1.05435104762063,-6.4,4.37122256636251));
#318=CARTESIAN_POINT('',(-2.10870209524127,-6.4,4.37122256636251));
#319=CARTESIAN_POINT('Origin',(-2.10870209524127,-6.4,1.95));
#320=CARTESIAN_POINT('',(-2.10870209524127,10.6,3.95));
#321=CARTESIAN_POINT('',(-2.10870209524127,10.6,-0.343892130533675));
#322=CARTESIAN_POINT('',(-2.10870209524127,-6.4,3.95));
#323=CARTESIAN_POINT('',(-2.10870209524127,-6.4,-0.343892130533674));
#324=CARTESIAN_POINT('',(-2.10870209524127,-6.4,3.95));
#325=CARTESIAN_POINT('Origin',(2.05154138579457,-6.4,4.37122256636251));
#326=CARTESIAN_POINT('',(2.05154138579457,10.6,3.95));
#327=CARTESIAN_POINT('',(2.05154138579457,10.6,0.866719152647578));
#328=CARTESIAN_POINT('',(2.05154138579457,-6.4,3.95));
#329=CARTESIAN_POINT('',(2.05154138579457,-6.4,3.95));
#330=CARTESIAN_POINT('',(2.05154138579457,-6.4,0.866719152647579));
#331=CARTESIAN_POINT('Origin',(0.,10.6,-2.63778426106735));
#332=CARTESIAN_POINT('',(-14.6377844398813,10.6,-2.63778426106735));
#333=CARTESIAN_POINT('Origin',(0.,10.6,-2.63778426106735));
#334=CARTESIAN_POINT('',(-2.95,10.6,3.95));
#335=CARTESIAN_POINT('',(1.475,10.6,3.95));
#336=CARTESIAN_POINT('',(-2.95,10.6,-3.95));
#337=CARTESIAN_POINT('Origin',(-2.95,10.6,-2.11461915180033E-16));
#338=CARTESIAN_POINT('',(2.95,10.6,-3.95));
#339=CARTESIAN_POINT('',(-1.475,10.6,-3.95));
#340=CARTESIAN_POINT('',(2.95,10.6,3.95));
#341=CARTESIAN_POINT('Origin',(2.95,10.6,1.59489211356231E-15));
#342=CARTESIAN_POINT('',(1.475,10.6,3.95));
#343=CARTESIAN_POINT('Origin',(2.95,-6.4,3.95));
#344=CARTESIAN_POINT('',(-2.95,-6.4,3.95));
#345=CARTESIAN_POINT('',(1.475,-6.4,3.95));
#346=CARTESIAN_POINT('',(-2.95,-6.4,3.95));
#347=CARTESIAN_POINT('Origin',(2.95,-6.4,2.42755938203118E-15));
#348=CARTESIAN_POINT('',(2.95,-6.4,3.95));
#349=CARTESIAN_POINT('',(2.95,-6.4,-3.95));
#350=CARTESIAN_POINT('Origin',(2.95,-6.4,2.42755938203118E-15));
#351=CARTESIAN_POINT('',(2.95,-6.4,3.95));
#352=CARTESIAN_POINT('',(2.95,-6.4,-3.95));
#353=CARTESIAN_POINT('Origin',(-2.95,-6.4,-3.95));
#354=CARTESIAN_POINT('',(-2.95,-6.4,-3.95));
#355=CARTESIAN_POINT('',(-1.475,-6.4,-3.95));
#356=CARTESIAN_POINT('',(-2.95,-6.4,-3.95));
#357=CARTESIAN_POINT('Origin',(-2.95,-6.4,6.21205353288834E-16));
#358=CARTESIAN_POINT('Origin',(-2.95,-6.4,6.21205353288834E-16));
#359=CARTESIAN_POINT('Origin',(2.95,-6.4,3.95));
#360=CARTESIAN_POINT('',(1.475,-6.4,3.95));
#361=CARTESIAN_POINT('Origin',(0.,-6.4,-2.63778426106735));
#362=CARTESIAN_POINT('',(-14.6377844398813,-6.4,-2.63778426106735));
#363=CARTESIAN_POINT('',(-14.6377844398813,-6.4,-2.63778426106735));
#364=CARTESIAN_POINT('Origin',(0.,-6.4,-2.63778426106735));
#365=CARTESIAN_POINT('Origin',(0.,-6.4,-2.63778426106735));
#366=CARTESIAN_POINT('',(0.,0.,0.));
#367=UNCERTAINTY_MEASURE_WITH_UNIT(LENGTH_MEASURE(0.01),#373,
'DISTANCE_ACCURACY_VALUE',
'Maximum model space distance between geometric entities at asserted c
onnectivities');
#368=UNCERTAINTY_MEASURE_WITH_UNIT(LENGTH_MEASURE(0.01),#373,
'DISTANCE_ACCURACY_VALUE',
'Maximum model space distance between geometric entities at asserted c
onnectivities');
#369=UNCERTAINTY_MEASURE_WITH_UNIT(LENGTH_MEASURE(0.01),#373,
'DISTANCE_ACCURACY_VALUE',
'Maximum model space distance between geometric entities at asserted c
onnectivities');
#370=(
GEOMETRIC_REPRESENTATION_CONTEXT(3)
GLOBAL_UNCERTAINTY_ASSIGNED_CONTEXT((#367))
GLOBAL_UNIT_ASSIGNED_CONTEXT((#373,#375,#376))
REPRESENTATION_CONTEXT('','3D')
);
#371=(
GEOMETRIC_REPRESENTATION_CONTEXT(3)
GLOBAL_UNCERTAINTY_ASSIGNED_CONTEXT((#368))
GLOBAL_UNIT_ASSIGNED_CONTEXT((#373,#375,#376))
REPRESENTATION_CONTEXT('','3D')
);
#372=(
GEOMETRIC_REPRESENTATION_CONTEXT(3)
GLOBAL_UNCERTAINTY_ASSIGNED_CONTEXT((#369))
GLOBAL_UNIT_ASSIGNED_CONTEXT((#373,#375,#376))
REPRESENTATION_CONTEXT('','3D')
);
#373=(
LENGTH_UNIT()
NAMED_UNIT(*)
SI_UNIT(.MILLI.,.METRE.)
);
#374=(
LENGTH_UNIT()
NAMED_UNIT(*)
SI_UNIT($,.METRE.)
);
#375=(
NAMED_UNIT(*)
PLANE_ANGLE_UNIT()
SI_UNIT($,.RADIAN.)
);
#376=(
NAMED_UNIT(*)
SI_UNIT($,.STERADIAN.)
SOLID_ANGLE_UNIT()
);
#377=SHAPE_DEFINITION_REPRESENTATION(#379,#382);
#378=SHAPE_DEFINITION_REPRESENTATION(#380,#383);
#379=PRODUCT_DEFINITION_SHAPE('',$,#385);
#380=PRODUCT_DEFINITION_SHAPE('',$,#386);
#381=PRODUCT_DEFINITION_SHAPE($,$,#16);
#382=SHAPE_REPRESENTATION('',(#227,#246),#370);
#383=SHAPE_REPRESENTATION('',(#228),#371);
#384=PRODUCT_DEFINITION_CONTEXT('part definition',#392,'design');
#385=PRODUCT_DEFINITION('2026-05-23-20-15-42-928','Hat',#387,#384);
#386=PRODUCT_DEFINITION('2026-05-23-20-15-42-929','part_object_id_1',#388,
#384);
#387=PRODUCT_DEFINITION_FORMATION('',$,#394);
#388=PRODUCT_DEFINITION_FORMATION('',$,#395);
#389=PRODUCT_RELATED_PRODUCT_CATEGORY('Hat','Hat',(#394));
#390=PRODUCT_RELATED_PRODUCT_CATEGORY('part_object_id_1',
'part_object_id_1',(#395));
#391=APPLICATION_PROTOCOL_DEFINITION('international standard',
'automotive_design',2009,#392);
#392=APPLICATION_CONTEXT(
'Core Data for Automotive Mechanical Design Process');
#393=PRODUCT_CONTEXT('part definition',#392,'mechanical');
#394=PRODUCT('2026-05-23-20-15-42-928','Hat',$,(#393));
#395=PRODUCT('2026-05-23-20-15-42-929','part_object_id_1',$,(#393));
#396=PRESENTATION_STYLE_ASSIGNMENT((#397));
#397=SURFACE_STYLE_USAGE(.BOTH.,#398);
#398=SURFACE_SIDE_STYLE('',(#399));
#399=SURFACE_STYLE_FILL_AREA(#400);
#400=FILL_AREA_STYLE('Phenolic (Amber)',(#401));
#401=FILL_AREA_STYLE_COLOUR('Phenolic (Amber)',#402);
#402=COLOUR_RGB('Phenolic (Amber)',0.964705882352941,0.701960784313725,
0.152941176470588);
ENDSEC;
END-ISO-10303-21;
